<svg clip-rule="evenodd" fill-rule="evenodd" height="67.733mm" image-rendering="optimizeQuality" shape-rendering="geometricPrecision" text-rendering="geometricPrecision" viewBox="0 0 6773 6773" width="67.733mm" xmlns="http://www.w3.org/2000/svg"><g id="Layer_x0020_1"><circle cx="3387" cy="3387" fill="#057998" r="3387"/><g id="_333191440"><path d="m3329 5554c-9 0-17-1-24-6l-1968-1060c-16-8-27-26-27-44 0-19 10-36 27-45l655-352c24-13 56-4 68 21 11 18 1539 126 2250 182 23-96 40-160 44-153 3 6-4 67-17 155 205 16 335 28 329 31l-336 17c-44 286-133 774-150 784l-827 464c-7 4-16 6-24 6z" fill="#3e7fff"/><path d="m3329 4850c-9 0-17-2-24-6l-1968-1060c-16-9-27-26-27-45s10-35 27-45l655-352c14-8 455 102 835 202 419-64 1781-224 1802-212l636 347c16 8 26 25 26 44s-10 36-26 45l-396 223c-9 5-17 6-26 6-5 0-33 32-72 77 1 2-2 6-10 12-103 121-266 320-272 308-7-11 62-119 138-231-195 102-519 255-535 265l-739 415c-7 4-16 7-24 7z" fill="#ffdf40"/><path d="m3329 4145c-9 0-17-2-24-6l-1968-1059c-16-9-27-27-27-45 0-19 10-36 27-45l655-352c18-10 859-326 1328-490-427-194-797-366-791-376 6-11 421 156 880 345 130-45 215-71 218-66s-64 37-172 85c557 229 1161 483 1174 491l636 347c16 8 26 25 26 44 0 18-10 35-26 45l-1912 1075c-7 5-16 7-24 7z" fill="#59c7d3"/><path d="m3329 3440c-9 0-17-1-24-6l-1968-1060c-16-8-27-26-27-45 0-18 10-35 27-44l1967-1060c15-8 33-8 48 0l1913 1043c16 9 26 26 26 44 0 19-10 36-26 45l-1912 1076c-7 5-16 7-24 7z" fill="#da4a54"/><path d="m4716 5377c-144 0-285-42-408-122-344-226-441-689-216-1033 110-167 277-281 472-322s395-3 561 106c167 109 281 277 322 471 41 195 3 395-106 562s-277 281-471 321c-52 11-103 17-154 17z" fill="#f6f1f1"/><g fill="#838383"><path d="m4717 5029c-28 0-51-23-51-51v-695c0-28 23-51 51-51s51 23 51 51v695c0 28-23 51-51 51z"/><path d="m5065 4681h-696c-28 0-51-22-51-50s23-51 51-51h695c28 0 51 23 51 51s-22 50-50 50z"/></g></g></g></svg>