<svg width="480" height="480" xmlns="http://www.w3.org/2000/svg" xmlns:xlink="http://www.w3.org/1999/xlink" xml:space="preserve" overflow="hidden"><g transform="translate(-400 -120)"><path d="M815.999 344.001C819.155 343.991 822.009 342.126 823.287 339.241L823.343 339.113 855.279 267.257C855.745 266.234 855.99 265.125 855.999 264.001L855.999 128.001C856.052 123.636 852.557 120.054 848.192 120.001 848.128 120 848.063 120 847.999 120.001L703.999 120.001C700.952 119.984 698.161 121.7 696.799 124.425L664.799 188.425 664.879 188.425C664.305 189.53 664.004 190.756 663.999 192.001L663.999 256.001 616 256.001 616 128.001C616.053 123.636 612.558 120.054 608.193 120.001 608.129 120 608.064 120 608 120.001L464 120.001C460.968 120 458.195 121.713 456.84 124.425L424.84 188.425 424.92 188.425C424.332 189.527 424.017 190.753 424 192.001L424 336.001C424 340.419 427.582 344.001 432 344.001L496 344.001 496 376 464 376C460.968 375.999 458.195 377.712 456.84 380.424L424.84 444.424 424.92 444.424C424.332 445.526 424.017 446.752 424 448L424 592C424 596.418 427.582 600 432 600L576 600C579.156 599.99 582.01 598.125 583.288 595.24L583.344 595.112 613.2 528 663.999 528 663.999 592C663.999 596.418 667.581 600 671.999 600L815.999 600C819.155 599.99 822.009 598.125 823.287 595.24L823.343 595.112 855.279 523.256C855.745 522.233 855.99 521.124 855.999 520L855.999 384C856.052 379.635 852.557 376.053 848.192 376 848.128 375.999 848.063 375.999 847.999 376L751.999 376 751.999 344.001 815.999 344.001ZM839.999 262.305 823.999 298.305 823.999 193.889 839.999 161.889 839.999 262.305ZM708.943 136.001 835.055 136.001 811.055 184.001 684.943 184.001 708.943 136.001ZM584 256.001 584 193.889 600 161.889 600 256.001 584 256.001ZM595.688 272.001 584 298.305 584 272.001 595.688 272.001ZM468.944 136.001 595.056 136.001 571.056 184.001 444.944 184.001 468.944 136.001ZM440 328.001 440 200.001 568 200.001 568 256.001 496 256.001 496 272.001 568 272.001 568 328.001 440 328.001ZM468.944 392 496 392 496 440 444.944 440 468.944 392ZM568 584 440 584 440 456 496 456 496 528 512 528 512 456 568 456 568 584ZM571.056 440 512 440 512 392 595.056 392 571.056 440ZM584 554.304 584 528 595.688 528 584 554.304ZM600 512 584 512 584 449.888 600 417.888 600 512ZM664.799 444.424 664.879 444.424C664.305 445.529 664.004 446.755 663.999 448L663.999 512 616 512 616 384C616.053 379.635 612.558 376.053 608.193 376 608.129 375.999 608.064 375.999 608 376L512 376 512 344.001 576 344.001C579.156 343.991 582.01 342.126 583.288 339.241L583.344 339.113 613.2 272.001 663.999 272.001 663.999 336.001C663.999 340.419 667.581 344.001 671.999 344.001L735.999 344.001 735.999 376 703.999 376C700.952 375.983 698.161 377.699 696.799 380.424L664.799 444.424ZM735.999 392 735.999 440 684.943 440 708.943 392 735.999 392ZM807.999 584 679.999 584 679.999 528 751.999 528 751.999 512 679.999 512 679.999 456 807.999 456 807.999 584ZM839.999 518.304 823.999 554.304 823.999 449.888 839.999 417.888 839.999 518.304ZM835.055 392 811.055 440 751.999 440 751.999 392 835.055 392ZM735.999 256.001 735.999 328.001 679.999 328.001 679.999 200.001 807.999 200.001 807.999 328.001 751.999 328.001 751.999 256.001 735.999 256.001Z" stroke="#7F7F7F" fill="#7F7F7F"/></g></svg>