<svg width="60" height="60" xmlns="http://www.w3.org/2000/svg" xmlns:xlink="http://www.w3.org/1999/xlink" xml:space="preserve" overflow="hidden"><defs><clipPath id="clip0"><rect x="610" y="330" width="60" height="60"/></clipPath></defs><g clip-path="url(#clip0)" transform="translate(-610 -330)"><path d="M629 390 651 390C653.209 390 655 388.209 655 386L655 372.933 663.808 370.523C665.102 370.161 665.997 368.983 666 367.64L666 350.435 666.54 350.284C669.059 349.578 670.528 346.964 669.822 344.445 669.708 344.04 669.541 343.651 669.324 343.289L665.858 337.489 665.849 337.495C665.722 337.275 665.516 337.113 665.273 337.04L641.081 330.149C640.373 329.95 639.624 329.95 638.916 330.149L614.726 337.04C614.483 337.113 614.278 337.276 614.151 337.495L614.142 337.489 610.677 343.289C609.33 345.531 610.055 348.441 612.297 349.788 612.661 350.006 613.052 350.175 613.46 350.289L614 350.44 614 367.64C614.003 368.986 614.903 370.165 616.2 370.524L625 372.933 625 386C625 388.209 626.791 390 629 390ZM653 386C653 387.105 652.105 388 651 388L629 388C627.895 388 627 387.105 627 386L627 361C627 359.895 627.895 359 629 359L651 359C652.105 359 653 359.895 653 361ZM664 367.64C663.997 368.084 663.703 368.473 663.276 368.595L655 370.859 655 361C655 358.791 653.209 357 651 357L641 357 641 348.613 643.674 353.071C644.532 354.498 646.074 355.371 647.739 355.371 648.169 355.371 648.596 355.313 649.01 355.196L664 351ZM667.8 346.74C667.487 347.532 666.821 348.131 666 348.358L648.47 353.269C647.284 353.6 646.022 353.098 645.388 352.042L641.531 345.611 664.531 339.171 667.605 344.316C668.047 345.047 668.119 345.943 667.8 346.735ZM639.461 332.075C639.812 331.976 640.185 331.976 640.536 332.075L661.32 337.994 640 343.963 618.68 337.994ZM612.2 346.735C611.882 345.941 611.956 345.045 612.4 344.314L615.466 339.171 638.466 345.611 634.609 352.042C633.975 353.098 632.713 353.601 631.527 353.269L614 348.358C613.178 348.13 612.512 347.529 612.2 346.735ZM616.728 368.6C616.298 368.479 616.001 368.087 616 367.64L616 351 630.99 355.2C633.044 355.773 635.227 354.904 636.326 353.077L639 348.613 639 357 629 357C626.791 357 625 358.791 625 361L625 370.859Z" stroke="#7F7F7F"/><path d="M634.293 362.293 632 364.586 631.707 364.293C631.31 363.909 630.677 363.92 630.293 364.318 629.919 364.705 629.919 365.319 630.293 365.707L631.293 366.707C631.683 367.097 632.317 367.097 632.707 366.707L635.707 363.707C636.091 363.31 636.08 362.677 635.682 362.293 635.295 361.919 634.68 361.919 634.293 362.293Z" stroke="#7F7F7F"/><path d="M649 364 639 364C638.448 364 638 364.448 638 365 638 365.552 638.448 366 639 366L649 366C649.552 366 650 365.552 650 365 650 364.448 649.552 364 649 364Z" stroke="#7F7F7F"/><path d="M634.293 368.293 632 370.586 631.707 370.293C631.31 369.909 630.677 369.92 630.293 370.318 629.919 370.705 629.919 371.319 630.293 371.707L631.293 372.707C631.683 373.097 632.317 373.097 632.707 372.707L635.707 369.707C636.091 369.31 636.08 368.677 635.682 368.293 635.295 367.919 634.68 367.919 634.293 368.293Z" stroke="#7F7F7F"/><path d="M649 370 639 370C638.448 370 638 370.448 638 371 638 371.552 638.448 372 639 372L649 372C649.552 372 650 371.552 650 371 650 370.448 649.552 370 649 370Z" stroke="#7F7F7F"/><path d="M634.293 374.293 632 376.586 631.707 376.293C631.31 375.909 630.677 375.92 630.293 376.318 629.919 376.705 629.919 377.319 630.293 377.707L631.293 378.707C631.683 379.097 632.317 379.097 632.707 378.707L635.707 375.707C636.091 375.31 636.08 374.677 635.682 374.293 635.295 373.919 634.68 373.919 634.293 374.293Z" stroke="#7F7F7F"/><path d="M649 376 639 376C638.448 376 638 376.448 638 377 638 377.552 638.448 378 639 378L649 378C649.552 378 650 377.552 650 377 650 376.448 649.552 376 649 376Z" stroke="#7F7F7F"/><path d="M634.293 380.293 632 382.586 631.707 382.293C631.31 381.909 630.677 381.92 630.293 382.318 629.919 382.705 629.919 383.319 630.293 383.707L631.293 384.707C631.683 385.097 632.317 385.097 632.707 384.707L635.707 381.707C636.091 381.31 636.08 380.677 635.682 380.293 635.295 379.919 634.68 379.919 634.293 380.293Z" stroke="#7F7F7F"/><path d="M649 382 639 382C638.448 382 638 382.448 638 383 638 383.552 638.448 384 639 384L649 384C649.552 384 650 383.552 650 383 650 382.448 649.552 382 649 382Z" stroke="#7F7F7F"/></g></svg>