<svg width="512" height="512" xmlns="http://www.w3.org/2000/svg" xmlns:xlink="http://www.w3.org/1999/xlink" xml:space="preserve" overflow="hidden"><g transform="translate(-384 -104)"><path d="M856 232 845.61 232C872.154 202.392 869.67 156.872 840.062 130.328 810.454 103.784 764.934 106.268 738.39 135.876 713.87 163.226 713.87 204.65 738.39 232L640 232 640 152C640 147.582 636.418 144 632 144L600 144C595.582 144 592 147.582 592 152L592 232 584 232 584 120C584 115.582 580.418 112 576 112L544 112C539.582 112 536 115.582 536 120L536 232 528 232 528 176C528 171.582 524.418 168 520 168L488 168C483.582 168 480 171.582 480 176L480 232 424 232C406.335 232.02 392.02 246.335 392 264L392 504C392.02 521.665 406.335 535.98 424 536L588.9 536 578.23 568 552 568C547.582 568 544 571.582 544 576L544 592 464 592C459.582 592 456 595.582 456 600 456 604.418 459.582 608 464 608L816 608C820.418 608 824 604.418 824 600 824 595.582 820.418 592 816 592L736 592 736 576C736 571.582 732.418 568 728 568L701.77 568 691.1 536 856 536C873.665 535.98 887.98 521.665 888 504L888 264C887.98 246.335 873.665 232.02 856 232ZM800 128.58C824.553 132.163 843.837 151.447 847.42 176L800 176ZM795.31 192 847.42 192C843.023 222.593 814.658 243.828 784.065 239.431 774.783 238.097 765.986 234.451 758.48 228.83ZM736 184C736.04 156.178 756.469 132.591 784 128.58L784 180.69 747.17 217.52C739.908 207.855 735.988 196.089 736 184ZM608 160 624 160 624 312 608 312ZM584 248 592 248 592 312 584 312ZM552 128 568 128 568 312 552 312ZM528 248 536 248 536 312 528 312ZM496 184 512 184 512 312 496 312ZM720 584 720 592 560 592 560 584ZM595.1 568 605.77 536 674.23 536 684.9 568ZM872 504C871.988 512.832 864.832 519.988 856 520L424 520C415.168 519.988 408.012 512.832 408 504L408 488 872 488ZM872 472 408 472 408 264C408.012 255.168 415.168 248.012 424 248L480 248 480 312 472 312 472 264C472 259.582 468.418 256 464 256L432 256C427.582 256 424 259.582 424 264L424 320C424 324.418 427.582 328 432 328L688 328C692.418 328 696 324.418 696 320L696 264C696 259.582 692.418 256 688 256L656 256C651.582 256 648 259.582 648 264L648 312 640 312 640 248 759.08 248C779.731 258.667 804.269 258.667 824.92 248L856 248C864.832 248.012 871.988 255.168 872 264ZM456 272 456 312 440 312 440 272ZM664 312 664 272 680 272 680 312Z" fill="#F2F2F2"/><path d="M480 496 432 496C427.582 496 424 499.582 424 504 424 508.418 427.582 512 432 512L480 512C484.418 512 488 508.418 488 504 488 499.582 484.418 496 480 496Z" fill="#F2F2F2"/><path d="M512 496 504 496C499.582 496 496 499.582 496 504 496 508.418 499.582 512 504 512L512 512C516.418 512 520 508.418 520 504 520 499.582 516.418 496 512 496Z" fill="#F2F2F2"/><path d="M728 312C730.122 312.003 732.158 311.16 733.657 309.657L763.313 280 832 280C836.418 280 840 276.418 840 272 840 267.582 836.418 264 832 264L760 264C757.878 264 755.843 264.843 754.343 266.343L722.343 298.343C719.219 301.467 719.219 306.532 722.343 309.657 723.843 311.157 725.878 312 728 312Z" fill="#F2F2F2"/><path d="M832 400C823.444 400.006 815.539 404.567 811.25 411.97L727.5 363.11C724.799 350.133 712.09 341.803 699.113 344.503 689.543 346.495 682.137 354.092 680.39 363.71L596.11 426.92C588.898 415.813 574.047 412.656 562.94 419.868 559.407 422.162 556.541 425.346 554.63 429.1L471.33 394.39C468.237 381.495 455.277 373.549 442.383 376.642 429.488 379.734 421.542 392.694 424.634 405.589 427.727 418.484 440.687 426.43 453.582 423.337 460.41 421.7 466.179 417.155 469.37 410.9L552.67 445.61C555.766 458.495 568.722 466.431 581.607 463.335 590.851 461.114 597.912 453.644 599.61 444.29L683.89 381.08C691.099 392.185 705.945 395.344 717.051 388.135 720.22 386.078 722.858 383.301 724.75 380.03L808.5 428.89C811.201 441.867 823.91 450.197 836.887 447.497 849.863 444.796 858.194 432.087 855.493 419.11 853.177 407.98 843.369 400.002 832 400ZM456 400.04C455.989 404.469 452.389 408.051 447.96 408.04 443.531 408.029 439.949 404.429 439.96 400 439.971 395.571 443.571 391.989 448 392 452.414 392.011 455.989 395.586 456 400ZM576 448C571.584 447.994 568.006 444.416 568 440L568 439.96C568.022 435.542 571.622 431.978 576.04 432 580.458 432.022 584.022 435.622 584 440.04 583.978 444.443 580.403 448 576 448ZM704 376C699.582 376 696 372.418 696 368 696 363.582 699.582 360 704 360 708.418 360 712 363.582 712 368 711.994 372.416 708.416 375.994 704 376ZM832 432C827.582 432 824 428.418 824 424 824 419.582 827.582 416 832 416 836.418 416 840 419.582 840 424 839.994 428.416 836.416 431.994 832 432Z" fill="#F2F2F2"/><path d="M768 448 712 448C707.582 448 704 451.582 704 456 704 460.418 707.582 464 712 464L768 464C772.418 464 776 460.418 776 456 776 451.582 772.418 448 768 448Z" fill="#F2F2F2"/><path d="M768 424 744 424C739.582 424 736 427.582 736 432 736 436.418 739.582 440 744 440L768 440C772.418 440 776 436.418 776 432 776 427.582 772.418 424 768 424Z" fill="#F2F2F2"/><path d="M432 352 520 352C524.418 352 528 348.418 528 344 528 339.582 524.418 336 520 336L432 336C427.582 336 424 339.582 424 344 424 348.418 427.582 352 432 352Z" fill="#F2F2F2"/><path d="M544 352 552 352C556.418 352 560 348.418 560 344 560 339.582 556.418 336 552 336L544 336C539.582 336 536 339.582 536 344 536 348.418 539.582 352 544 352Z" fill="#F2F2F2"/></g></svg>