<svg width="64" height="64" xmlns="http://www.w3.org/2000/svg" xmlns:xlink="http://www.w3.org/1999/xlink" xml:space="preserve" overflow="hidden"><g transform="translate(-608 -328)"><path d="M667 337.908 662.286 337.908 662.286 335.122C662.286 334.57 661.838 334.122 661.286 334.122L645.494 334.122C644.357 334.126 643.277 334.62 642.532 335.479 641.788 334.62 640.708 334.126 639.571 334.122L623.786 334.122C623.234 334.122 622.786 334.57 622.786 335.122L622.786 337.908 618.06 337.908C617.508 337.908 617.06 338.356 617.06 338.908L617.06 352.126 613.008 352.091C612.454 352.09 612.004 352.537 612 353.091L612 358.998C612 359.55 612.448 359.998 613 359.998L617.06 359.998 617.06 384.878C617.06 385.43 617.508 385.878 618.06 385.878L667 385.878C667.552 385.878 668 385.43 668 384.878L668 338.908C668 338.356 667.552 337.908 667 337.908ZM645.494 336.122 660.286 336.122 660.286 379.967 645.494 379.967C644.645 379.964 643.894 379.414 643.636 378.605 643.614 378.57 643.717 372.52 643.532 372.768L643.532 338.083C643.534 337 644.411 336.123 645.494 336.122ZM639.571 336.122C640.654 336.123 641.531 337.001 641.532 338.083L641.532 378.006C641.531 379.089 640.654 379.966 639.571 379.967L624.786 379.967 624.786 338.93C624.79 338.916 624.79 338.901 624.786 338.887L624.786 336.122ZM614 357.998 614 354.1 617.06 354.126 617.06 357.998ZM619.06 359.022C619.059 355.145 619.061 343.939 619.06 339.908L622.786 339.908 622.786 380.967C622.786 381.52 623.234 381.967 623.786 381.967L639.571 381.967C640.302 381.965 641.017 381.758 641.636 381.371L641.636 383.878 619.06 383.878ZM666 383.878 643.636 383.878 643.636 381.483C644.205 381.796 644.844 381.963 645.494 381.967L661.286 381.967C661.838 381.967 662.286 381.52 662.286 380.967L662.286 339.908 666 339.908Z" fill="#F2F2F2"/><path d="M647.071 348.443 656.748 348.443C657.3 348.443 657.748 347.996 657.748 347.443L657.748 342.067C657.748 341.515 657.3 341.067 656.748 341.067L647.071 341.067C646.519 341.067 646.071 341.515 646.071 342.067L646.071 347.443C646.071 347.996 646.519 348.443 647.071 348.443ZM648.071 343.067 655.748 343.067 655.748 346.443 648.071 346.443Z" fill="#F2F2F2"/><path d="M647.071 361.733 656.748 361.733C657.3 361.733 657.748 361.285 657.748 360.733L657.748 355.357C657.748 354.805 657.3 354.357 656.748 354.357L647.071 354.357C646.519 354.357 646.071 354.805 646.071 355.357L646.071 360.733C646.071 361.285 646.519 361.733 647.071 361.733ZM648.071 356.357 655.748 356.357 655.748 359.733 648.071 359.733Z" fill="#F2F2F2"/><path d="M647.071 375.022 656.748 375.022C657.3 375.022 657.748 374.575 657.748 374.022L657.748 368.646C657.748 368.094 657.3 367.646 656.748 367.646L647.071 367.646C646.519 367.646 646.071 368.094 646.071 368.646L646.071 374.022C646.071 374.575 646.519 375.022 647.071 375.022ZM648.071 369.646 655.748 369.646 655.748 373.022 648.071 373.022Z" fill="#F2F2F2"/><path d="M628.321 348.443 637.998 348.443C638.55 348.443 638.998 347.996 638.998 347.443L638.998 342.067C638.998 341.515 638.55 341.067 637.998 341.067L628.321 341.067C627.769 341.067 627.321 341.515 627.321 342.067L627.321 347.443C627.321 347.996 627.769 348.443 628.321 348.443ZM629.321 343.067 636.998 343.067 636.998 346.443 629.321 346.443Z" fill="#F2F2F2"/><path d="M628.321 361.733 637.998 361.733C638.55 361.733 638.998 361.285 638.998 360.733L638.998 355.357C638.998 354.805 638.55 354.357 637.998 354.357L628.321 354.357C627.769 354.357 627.321 354.805 627.321 355.357L627.321 360.733C627.321 361.285 627.769 361.733 628.321 361.733ZM629.321 356.357 636.998 356.357 636.998 359.733 629.321 359.733Z" fill="#F2F2F2"/><path d="M628.321 375.022 637.998 375.022C638.55 375.022 638.998 374.575 638.998 374.022L638.998 368.646C638.998 368.094 638.55 367.646 637.998 367.646L628.321 367.646C627.769 367.646 627.321 368.094 627.321 368.646L627.321 374.022C627.321 374.575 627.769 375.022 628.321 375.022ZM629.321 369.646 636.998 369.646 636.998 373.022 629.321 373.022Z" fill="#F2F2F2"/></g></svg>