<svg id="Layer_1" viewBox="0 0 512 512" xmlns="http://www.w3.org/2000/svg" data-name="Layer 1"><path d="m215.616 357.584h82.952a7 7 0 0 0 7-7v-74.3a7 7 0 0 0 -7-7h-82.952a7 7 0 0 0 -7 7v74.3a7 7 0 0 0 7 7zm7-74.3h68.952v60.3h-68.952zm42.747 107.316a56.2 56.2 0 1 0 56.2 56.2 56.264 56.264 0 0 0 -56.2-56.2zm0 98.4a42.2 42.2 0 1 1 42.2-42.2 42.248 42.248 0 0 1 -42.2 42.2zm209.728-436.714v133.319a7 7 0 0 1 -7 7h-112.818l3.891 4.153a7 7 0 0 1 -10.215 9.573l-14.921-15.921a7 7 0 0 1 -.091-9.473l14.231-15.789a7 7 0 1 1 10.4 9.373l-3.681 4.084h106.204v-119.319h-121.748a7 7 0 0 1 0-14h128.748a7 7 0 0 1 7 7zm-435.134-3.386a7 7 0 0 1 7-7h119.552a7 7 0 0 1 0 14h-119.552a7 7 0 0 1 -7-7zm175.659 177.08h82.952a7 7 0 0 0 7-7v-74.3a7 7 0 0 0 -7-7h-82.952a7 7 0 0 0 -7 7v74.3a7 7 0 0 0 7 7zm7-74.3h68.952v60.3h-68.952zm-44.553 162.013a7 7 0 0 1 -.091 9.473l-14.921 15.921a7 7 0 1 1 -10.215-9.573l3.891-4.152h-112.818a7 7 0 0 1 -7-7v-133.319a7 7 0 0 1 7-7h128.748a7 7 0 1 1 0 14h-121.748v119.319h106.206l-3.681-4.085a7 7 0 0 1 10.4-9.373zm297.028 3v133.323a7 7 0 0 1 -7 7h-112.819l3.892 4.152a7 7 0 0 1 -10.215 9.574l-14.921-15.922a7 7 0 0 1 -.091-9.473l14.231-15.788a7 7 0 1 1 10.4 9.373l-3.681 4.084h106.204v-119.316h-121.748a7 7 0 1 1 0-14h128.748a7 7 0 0 1 7 7zm-194.479-3.263a7 7 0 0 1 -7 7h-33.04a7 7 0 0 1 0-14h33.04a7 7 0 0 1 7 7.004zm0-131.6a7 7 0 0 1 -7 7h-9.519v9.52a7 7 0 1 1 -14 0v-9.52h-9.521a7 7 0 0 1 0-14h9.521v-9.52a7 7 0 1 1 14 0v9.52h9.519a7 7 0 0 1 7 7zm-65-84.529h82.952a7 7 0 0 0 7-7v-74.301a7 7 0 0 0 -7-7h-82.948a7 7 0 0 0 -7 7v74.3a7 7 0 0 0 7 7zm7-74.3h68.952v60.299h-68.948zm58 30.151a7 7 0 0 1 -7 7h-33.04a7 7 0 0 1 0-14h33.04a7 7 0 0 1 7 6.999zm8.272 393.648a7 7 0 0 1 -7 7h-9.52v9.521a7 7 0 0 1 -14 0v-9.521h-9.52a7 7 0 0 1 0-14h9.52v-9.52a7 7 0 0 1 14 0v9.52h9.52a7 7 0 0 1 7 7z"/></svg>