<?xml version="1.0" encoding="UTF-8"?>
<svg xmlns="http://www.w3.org/2000/svg" id="icons" viewBox="0 0 60 60" width="512" height="512"><path d="M44.96,14.53a1.771,1.771,0,0,0-.81-1.15L23.91,1.25a1.8,1.8,0,0,0-1.82,0L1.85,13.38a1.771,1.771,0,0,0-.81,1.15,1.472,1.472,0,0,0-.04.36V38.11a1.758,1.758,0,0,0,.85,1.51L22.09,51.75a1.781,1.781,0,0,0,1.82,0l4.32-2.59L45,27.13V14.89A1.472,1.472,0,0,0,44.96,14.53Z" fill="#4d72d8"/><path d="M23,27.38V52a1.734,1.734,0,0,1-.91-.25L1.85,39.62A1.758,1.758,0,0,1,1,38.11V14.89a1.472,1.472,0,0,1,.04-.36L22.03,27.11A1.87,1.87,0,0,0,23,27.38Z" fill="#3b5faf"/><path d="M45,14.89V27.13L28.23,49.16l-4.32,2.59A1.734,1.734,0,0,1,23,52V27.38a1.87,1.87,0,0,0,.97-.27L44.96,14.53A1.472,1.472,0,0,1,45,14.89Z" fill="#2a4b87"/><circle cx="43" cy="43" r="16" fill="#f7d858"/><path d="M52,42v2a1,1,0,0,1-1,1H45v6a1,1,0,0,1-1,1H42a1,1,0,0,1-1-1V45H35a1,1,0,0,1-1-1V42a1,1,0,0,1,1-1h6V35a1,1,0,0,1,1-1h2a1,1,0,0,1,1,1v6h6A1,1,0,0,1,52,42Z" fill="#fff"/><path d="M43,26A16.952,16.952,0,0,0,27.013,48.724L24,50.531V28.175a2.9,2.9,0,0,0,.482-.2L44,16.27V23a1,1,0,0,0,2,0V14.889a2.744,2.744,0,0,0-1.336-2.368L24.416.385a2.8,2.8,0,0,0-2.84.005L1.332,12.522A2.746,2.746,0,0,0,0,14.889v23.22a2.746,2.746,0,0,0,1.336,2.369L21.582,52.612a2.8,2.8,0,0,0,2.843,0l3.381-2.027A16.992,16.992,0,1,0,43,26ZM22.6,2.109a.8.8,0,0,1,.8,0L43.57,14.2,23.46,26.253a.9.9,0,0,1-.913,0L2.429,14.2ZM2.367,38.765A.762.762,0,0,1,2,38.109V16.27L21.524,27.976a3,3,0,0,0,.476.2V50.532ZM43,58A15,15,0,1,1,58,43,15.017,15.017,0,0,1,43,58Z" fill="#373737"/><path d="M51,40H46V35a2,2,0,0,0-2-2H42a2,2,0,0,0-2,2v5H35a2,2,0,0,0-2,2v2a2,2,0,0,0,2,2h5v5a2,2,0,0,0,2,2h2a2,2,0,0,0,2-2V46h5a2,2,0,0,0,2-2V42A2,2,0,0,0,51,40Zm0,4H45a1,1,0,0,0-1,1v6H42V45a1,1,0,0,0-1-1H35V42h6a1,1,0,0,0,1-1V35h2v6a1,1,0,0,0,1,1l6,0Z" fill="#373737"/></svg>
