<svg width="880" height="881" xmlns="http://www.w3.org/2000/svg" xmlns:xlink="http://www.w3.org/1999/xlink" xml:space="preserve" overflow="hidden"><defs><clipPath id="clip0"><rect x="605" y="455" width="880" height="881"/></clipPath></defs><g clip-path="url(#clip0)" transform="translate(-605 -455)"><path d="M1485 895.5C1485 1138.78 1288.01 1336 1045 1336 801.995 1336 605 1138.78 605 895.5 605 652.219 801.995 455 1045 455 1288.01 455 1485 652.219 1485 895.5Z" fill="#057998" fill-rule="evenodd"/><path d="M1037.89 1177C1036.72 1177 1035.67 1176.87 1034.76 1176.22L778.516 1038.9C776.432 1037.86 775 1035.53 775 1033.2 775 1030.74 776.302 1028.54 778.516 1027.37L863.801 981.768C866.926 980.084 871.093 981.25 872.655 984.488 874.087 986.82 1073.04 1000.81 1165.62 1008.07 1168.62 995.63 1170.83 987.338 1171.35 988.245 1171.74 989.023 1170.83 996.925 1169.14 1008.33 1195.83 1010.4 1212.76 1011.95 1211.97 1012.34L1168.22 1014.54C1162.5 1051.6 1150.91 1114.82 1148.69 1116.11L1041.01 1176.22C1040.1 1176.74 1038.93 1177 1037.89 1177Z" fill="#3E7FFF" fill-rule="evenodd"/><path d="M1037.71 1086C1036.54 1086 1035.5 1085.74 1034.59 1085.22L778.513 947.015C776.431 945.841 775 943.625 775 941.148 775 938.671 776.301 936.585 778.513 935.281L863.741 889.387C865.562 888.344 922.944 902.686 972.389 915.724 1026.91 907.38 1204.13 886.519 1206.86 888.083L1289.62 933.325C1291.7 934.368 1293 936.585 1293 939.062 1293 941.539 1291.7 943.756 1289.62 944.929L1238.09 974.004C1236.92 974.656 1235.88 974.786 1234.71 974.786 1234.06 974.786 1230.41 978.958 1225.34 984.825 1225.47 985.086 1225.08 985.608 1224.04 986.39 1210.64 1002.17 1189.43 1028.11 1188.65 1026.55 1187.73 1025.11 1196.71 1011.03 1206.6 996.429 1181.23 1009.73 1139.07 1029.68 1136.99 1030.98L1040.83 1085.09C1039.92 1085.61 1038.75 1086 1037.71 1086Z" fill="#FFDF40" fill-rule="evenodd"/><path d="M1037.71 994C1036.54 994 1035.5 993.741 1034.59 993.222L778.513 855.8C776.431 854.632 775 852.296 775 849.961 775 847.495 776.301 845.289 778.513 844.121L863.741 798.444C866.083 797.146 975.512 756.14 1036.54 734.859 980.977 709.684 932.834 687.364 933.614 686.067 934.395 684.639 988.394 706.31 1048.12 730.836 1065.03 724.997 1076.09 721.623 1076.48 722.271 1076.87 722.92 1068.16 727.073 1054.1 733.302 1126.58 763.018 1205.17 795.978 1206.86 797.016L1289.62 842.045C1291.7 843.083 1293 845.289 1293 847.755 1293 850.091 1291.7 852.296 1289.62 853.594L1040.83 993.092C1039.92 993.741 1038.75 994 1037.71 994Z" fill="#59C7D3" fill-rule="evenodd"/><path d="M1037.71 902C1036.54 902 1035.5 901.87 1034.59 901.222L778.513 763.77C776.431 762.733 775 760.399 775 757.935 775 755.601 776.301 753.397 778.513 752.23L1034.46 614.778C1036.41 613.741 1038.75 613.741 1040.7 614.778L1289.62 750.025C1291.7 751.192 1293 753.397 1293 755.731 1293 758.195 1291.7 760.399 1289.62 761.566L1040.83 901.092C1039.92 901.741 1038.75 902 1037.71 902Z" fill="#DA4A54" fill-rule="evenodd"/><path d="M1217.88 1154C1199.17 1154 1180.84 1148.54 1164.85 1138.15 1120.13 1108.78 1107.52 1048.63 1136.77 1003.93 1151.07 982.232 1172.78 967.42 1198.13 962.092 1223.47 956.765 1249.47 961.703 1271.05 975.865 1292.76 990.028 1307.58 1011.86 1312.91 1037.06 1318.24 1062.4 1313.3 1088.39 1299.13 1110.08 1284.96 1131.78 1263.12 1146.59 1237.9 1151.79 1231.14 1153.22 1224.51 1154 1217.88 1154Z" fill="#F6F1F1" fill-rule="evenodd"/><path d="M1239.15 1104.42C1235.83 1105.9 1231.88 1104.38 1230.4 1101.06L1193.71 1018.55C1192.23 1015.23 1193.74 1011.28 1197.07 1009.81 1200.39 1008.33 1204.34 1009.84 1205.81 1013.17L1242.51 1095.67C1243.99 1099 1242.47 1102.94 1239.15 1104.42Z" fill="#80350E" fill-rule="evenodd"/><path d="M1260.35 1039.7 1182.53 1085.75C1179.4 1087.61 1175.37 1086.67 1173.52 1083.54 1171.66 1080.41 1172.71 1076.31 1175.85 1074.46L1253.56 1028.47C1256.69 1026.62 1260.78 1027.67 1262.64 1030.8 1264.49 1033.93 1263.48 1037.85 1260.35 1039.7Z" fill="#80350E" fill-rule="evenodd"/></g></svg>