<svg width="1540" height="1540" xmlns="http://www.w3.org/2000/svg" xmlns:xlink="http://www.w3.org/1999/xlink" xml:space="preserve" overflow="hidden"><defs><clipPath id="clip0"><rect x="566" y="449" width="1540" height="1540"/></clipPath></defs><g clip-path="url(#clip0)" transform="translate(-566 -449)"><path d="M566 614C566 522.873 639.873 449 731 449L1171 449C1262.13 449 1336 522.873 1336 614L1336 1329C1336 1420.13 1262.13 1494 1171 1494L1006 1494 1006 1824C1006 1854.38 1030.62 1879 1061 1879L1666 1879C1696.38 1879 1721 1854.38 1721 1824L1721 1791.78 1704.89 1807.89C1683.41 1829.37 1648.59 1829.37 1627.11 1807.89 1605.63 1786.41 1605.63 1751.59 1627.11 1730.11L1737.11 1620.11C1758.59 1598.63 1793.41 1598.63 1814.89 1620.11L1924.89 1730.11C1946.37 1751.59 1946.37 1786.41 1924.89 1807.89 1903.41 1829.37 1868.59 1829.37 1847.11 1807.89L1831 1791.78 1831 1824C1831 1915.13 1757.13 1989 1666 1989L1061 1989C969.874 1989 896 1915.13 896 1824L896 1494 731 1494C639.873 1494 566 1420.13 566 1329ZM731 724C731 693.625 755.625 669 786 669L896 669C926.376 669 951.001 693.625 951.001 724 951.001 754.375 926.376 779 896 779L786 779C755.625 779 731 754.375 731 724ZM786 834C755.625 834 731 858.625 731 889 731 919.377 755.625 944 786 944L1116 944C1146.38 944 1171 919.377 1171 889 1171 858.625 1146.38 834 1116 834ZM731 1054C731 1023.62 755.625 999 786 999L1116 999C1146.38 999 1171 1023.62 1171 1054 1171 1084.38 1146.38 1109 1116 1109L786 1109C755.625 1109 731 1084.38 731 1054ZM786 1164C755.625 1164 731 1188.62 731 1219 731 1249.38 755.625 1274 786 1274L1116 1274C1146.38 1274 1171 1249.38 1171 1219 1171 1188.62 1146.38 1164 1116 1164Z" fill="#3A3A3A" fill-rule="evenodd"/><path d="M1556 449C1464.87 449 1391 522.873 1391 614L1391 1329C1391 1420.13 1464.87 1494 1556 1494L1941 1494C2032.13 1494 2106 1420.13 2106 1329L2106 614C2106 522.873 2032.13 449 1941 449Z" fill="#F2AA84" fill-rule="evenodd"/><g><g><g><path d="M1870.69 884.531 1841.47 855.312 1749 947.781 1656.53 855.312 1627.31 884.531 1719.78 977 1627.31 1069.47 1656.53 1098.69 1749 1006.22 1841.47 1098.69 1870.69 1069.47 1778.22 977Z" fill="#80350E"/></g></g></g></g></svg>