<svg width="512" height="512" xmlns="http://www.w3.org/2000/svg" xmlns:xlink="http://www.w3.org/1999/xlink" xml:space="preserve" overflow="hidden"><g transform="translate(-900 -244)"><path d="M1273 583 907 583C903 583 900 580 900 576L900 294C900 290 903 287 907 287L1273 287C1277 287 1280 290 1280 294L1280 576C1280 580 1277 583 1273 583ZM914 569 1266 569 1266 301 914 301Z" fill="#A6A6A6" fill-rule="evenodd"/><path d="M1175 382 971 382C967 382 964 379 964 375 964 371 967 368 971 368L1175 368C1179 368 1182 371 1182 375 1182 379 1179 382 1175 382Z" fill="#A6A6A6" fill-rule="evenodd"/><path d="M1192 399C1179 399 1168 388 1168 375 1168 361 1179 351 1192 351 1206 351 1216 361 1216 375 1216 388 1206 399 1192 399ZM1192 365C1187 365 1182 369 1182 375 1182 380 1187 385 1192 385 1198 385 1202 380 1202 375 1202 369 1198 365 1192 365Z" fill="#A6A6A6" fill-rule="evenodd"/><path d="M1209 442 1005 442C1001 442 998 439 998 435 998 431 1001 428 1005 428L1209 428C1213 428 1216 431 1216 435 1216 439 1213 442 1209 442Z" fill="#A6A6A6" fill-rule="evenodd"/><path d="M988 459C975 459 964 448 964 435 964 422 975 411 988 411 1001 411 1012 422 1012 435 1012 448 1001 459 988 459ZM988 425C982 425 978 429 978 435 978 441 982 445 988 445 993 445 998 441 998 435 998 429 993 425 988 425Z" fill="#A6A6A6" fill-rule="evenodd"/><path d="M1315 713C1314 713 1313 713 1313 713 1311 712 1309 711 1308 710L1286 671C1275 673 1264 673 1253 670L1231 708C1229 711 1225 712 1222 711L1178 685C1176 684 1175 683 1174 681 1174 679 1174 677 1175 675L1198 636C1195 632 1192 628 1190 624 1187 619 1184 613 1182 608L1138 608C1134 608 1131 605 1131 601L1131 576C1131 572 1134 569 1138 569 1142 569 1145 572 1145 576L1145 594 1187 594C1190 594 1193 596 1194 599 1196 605 1198 611 1202 617 1205 622 1208 627 1211 631 1213 633 1214 636 1212 639L1191 676 1223 695 1244 659C1245 656 1248 655 1252 655 1264 659 1276 659 1289 657 1292 656 1295 658 1296 660L1317 697 1349 678 1329 643C1328 641 1328 637 1330 635 1340 626 1347 614 1351 602 1352 599 1355 597 1358 597L1398 597 1398 560 1359 560C1356 560 1353 558 1352 555 1350 548 1348 541 1344 535 1341 530 1337 525 1333 520 1331 518 1331 515 1332 512L1352 478 1320 459 1300 493C1299 496 1296 497 1293 496 1286 495 1280 494 1273 494 1269 494 1266 491 1266 487 1266 483 1269 480 1273 480 1279 480 1285 481 1291 482L1311 446C1313 443 1318 442 1321 443L1365 469C1367 470 1368 471 1368 473 1369 475 1369 477 1368 479L1347 515C1350 519 1353 523 1356 528 1360 534 1362 540 1364 546L1405 546C1409 546 1412 549 1412 553L1412 604C1412 608 1409 611 1405 611L1362 611C1358 622 1352 632 1344 641L1365 677C1367 680 1366 685 1362 687L1318 712C1317 713 1316 713 1315 713Z" fill="#A6A6A6" fill-rule="evenodd"/><path d="M1273 621C1257 621 1242 613 1234 599 1230 592 1228 584 1228 576 1228 572 1231 569 1235 569 1238 569 1242 572 1242 576 1242 582 1243 587 1246 592 1254 607 1274 612 1289 603 1296 599 1301 592 1303 584 1305 576 1304 568 1300 560 1294 551 1284 545 1273 545 1269 545 1266 542 1266 538 1266 534 1269 531 1273 531 1289 531 1304 540 1312 553 1318 564 1320 576 1317 588 1314 600 1306 609 1296 615 1288 619 1281 621 1273 621Z" fill="#A6A6A6" fill-rule="evenodd"/><path d="M1209 502 1124 502C1120 502 1117 499 1117 495 1117 491 1120 488 1124 488L1209 488C1213 488 1216 491 1216 495 1216 499 1213 502 1209 502ZM1090 502 975 502C971 502 968 499 968 495 968 491 971 488 975 488L1090 488C1094 488 1097 491 1097 495 1097 499 1094 502 1090 502Z" fill="#A6A6A6" fill-rule="evenodd"/><path d="M1107 519C1094 519 1083 508 1083 495 1083 482 1094 471 1107 471 1120 471 1131 482 1131 495 1131 508 1120 519 1107 519ZM1107 485C1102 485 1097 490 1097 495 1097 501 1102 505 1107 505 1113 505 1117 501 1117 495 1117 490 1113 485 1107 485Z" fill="#A6A6A6" fill-rule="evenodd"/></g></svg>