<svg width="512" height="512" xmlns="http://www.w3.org/2000/svg" xmlns:xlink="http://www.w3.org/1999/xlink" xml:space="preserve" overflow="hidden"><g transform="translate(32 -120)"><path d="M218.6 271.24 229.4 271.24 229.4 302.416 218.6 302.416Z" fill="#A6A6A6"/><path d="M229.4 521.224 229.4 489.9 218.6 489.9 218.6 521.22C222.185 520.752 225.815 520.754 229.4 521.224Z" fill="#A6A6A6"/><path d="M78.776 560.9C79.262 564.484 79.262 568.116 78.776 571.7L178.856 571.7C178.37 568.116 178.37 564.484 178.856 560.9Z" fill="#A6A6A6"/><path d="M269.144 560.9C269.63 564.484 269.63 568.116 269.144 571.7L369.224 571.7C368.738 568.116 368.738 564.484 369.224 560.9Z" fill="#A6A6A6"/><path d="M224 311.848 157.688 342.664 224 368.008 290.312 342.664Z" fill="#A6A6A6"/><path d="M218.6 377.512 149.264 351.016 149.264 451.816 218.6 478.312Z" fill="#A6A6A6"/><path d="M298.736 351.016 229.4 377.512 229.4 478.312 298.736 451.816Z" fill="#A6A6A6"/><path d="M123.848 200.32 324.148 200.32C332.235 200.322 338.803 193.787 338.84 185.7L338.84 165.616C338.8 157.532 332.236 151 324.152 151L123.852 151C115.767 150.998 109.2 157.531 109.16 165.616L109.16 185.7C109.197 193.785 115.763 200.32 123.848 200.32ZM310.328 171.808C315.507 166.973 322.873 174.376 317.96 179.44 317.464 179.95 316.878 180.365 316.232 180.664 314.194 181.433 311.896 180.956 310.332 179.44 308.239 177.327 308.238 173.923 310.328 171.808ZM143.864 170.224 274.112 170.224C281.127 170.278 281.195 181.009 274.112 181.024L143.864 181.024C136.86 181.017 136.769 170.287 143.864 170.224Z" fill="#A6A6A6"/><path d="M123.848 260.44 324.148 260.44C332.246 260.406 338.802 253.85 338.836 245.752L338.836 225.736C338.796 217.654 332.234 211.122 324.152 211.12L123.852 211.12C115.768 211.12 109.204 217.652 109.164 225.736L109.164 245.752C109.198 253.848 115.752 260.404 123.848 260.44ZM309.176 233.656C310.764 229.378 317.55 229.382 319.112 233.656 322.188 243.46 306.1 243.456 309.176 233.656ZM143.864 230.344 274.112 230.344C281.127 230.398 281.195 241.129 274.112 241.144L143.864 241.144C136.86 241.138 136.769 230.407 143.864 230.344Z" fill="#A6A6A6"/><path d="M33.7 531.664C-12.2 533.119-12.118 599.569 33.7 601 79.432 599.542 79.5 533.132 33.7 531.664Z" fill="#A6A6A6"/><path d="M414.3 531.664C368.5 533.139 368.582 599.549 414.3 601 460.125 599.563 460.188 533.112 414.3 531.664Z" fill="#A6A6A6"/><path d="M224 531.664C178.2 533.073 178.074 599.503 224 601 269.936 599.5 269.786 533.066 224 531.664Z" fill="#A6A6A6"/></g></svg>