<svg width="512" height="512" xmlns="http://www.w3.org/2000/svg" xmlns:xlink="http://www.w3.org/1999/xlink" xml:space="preserve" overflow="hidden"><g transform="translate(-384 -104)"><path d="M492.19 154.126C503.326 154.126 512.353 163.153 512.353 174.289L512.353 251.318C512.353 262.454 503.326 271.481 492.19 271.481L415.161 271.481C404.025 271.481 394.998 262.454 394.998 251.318L394.998 174.289C394.998 163.153 404.025 154.126 415.161 154.126Z" fill="#F2F2F2"/><path d="M492.19 330.767C503.326 330.767 512.353 339.794 512.353 350.93L512.353 427.959C512.353 439.095 503.326 448.122 492.19 448.122L415.161 448.122C404.025 448.122 394.998 439.095 394.998 427.959L394.998 350.93C394.998 339.794 404.025 330.767 415.161 330.767Z" fill="#F2F2F2"/><path d="M864.88 517.56C875.991 517.56 884.998 526.567 884.998 537.678L884.998 577.742C884.998 588.853 875.991 597.86 864.88 597.86L415.116 597.86C404.005 597.86 394.998 588.853 394.998 577.742L394.998 537.678C394.998 526.567 404.005 517.56 415.116 517.56Z" fill="#F2F2F2"/><path d="M570.353 214.739C570.255 214.679 570.165 214.611 570.072 214.547 568.733 217.727 568.043 221.143 568.042 224.594L568.042 377.655C568.042 386.916 572.983 395.474 581.004 400.105L713.559 476.635C715.733 477.887 718.078 478.815 720.52 479.392L720.52 306.984Z" fill="#F2F2F2"/><path d="M875.836 204.832C874.653 203.824 873.381 202.924 872.037 202.144L739.481 125.614C731.461 120.983 721.579 120.983 713.559 125.614L581.004 202.144C579.651 202.929 578.371 203.835 577.182 204.851L726.494 296.57Z" fill="#F2F2F2"/><path d="M882.634 214.739 732.52 306.951 732.52 479.391C734.962 478.815 737.307 477.886 739.481 476.635L872.037 400.105C880.057 395.474 884.998 386.916 884.998 377.655L884.998 224.594C884.997 221.133 884.303 217.707 882.955 214.519 882.85 214.593 882.746 214.671 882.634 214.739Z" fill="#F2F2F2"/></g></svg>