<svg width="2671" height="2544" xmlns="http://www.w3.org/2000/svg" xmlns:xlink="http://www.w3.org/1999/xlink" xml:space="preserve" overflow="hidden"><g transform="translate(650 65)"><path d="M1107.5 659.667 1107.5 2413.5 257.5 2413.5 257.5 659.667C257.5 602.69 303.629 556.5 360.531 556.5L1004.46 556.5C1061.37 556.5 1107.5 602.69 1107.5 659.667Z" stroke="#FFFFFF" stroke-width="130.625" stroke-miterlimit="8" fill="none" fill-rule="evenodd"/><path d="M-584.5 1278.67-584.5 2310.33C-584.5 2367.31-538.317 2413.5-481.348 2413.5L266.5 2413.5 266.5 1278.67C266.5 1221.69 220.317 1175.5 163.348 1175.5L-481.348 1175.5C-538.317 1175.5-584.5 1221.69-584.5 1278.67Z" stroke="#FFFFFF" stroke-width="130.625" stroke-miterlimit="8" fill="none" fill-rule="evenodd"/><path d="M1955.5 134.556 1955.5 2413.5 1104.5 2413.5 1104.5 134.556C1104.5 60.5192 1150.68 0.499836 1207.65 0.499836L1852.34 0.499836C1909.31 0.499836 1955.5 60.5192 1955.5 134.556Z" stroke="#FFFFFF" stroke-width="130.625" stroke-miterlimit="8" fill="none" fill-rule="evenodd"/></g></svg>