<svg width="1856" height="2475" xmlns="http://www.w3.org/2000/svg" xmlns:xlink="http://www.w3.org/1999/xlink" xml:space="preserve" overflow="hidden"><defs><clipPath id="clip0"><rect x="1342" y="-95" width="1856" height="2475"/></clipPath></defs><g clip-path="url(#clip0)" transform="translate(-1342 95)"><path d="M3198 8.25397 3198 2276.75C3198 2333.76 3151.75 2380 3094.72 2380L2450.28 2380C2393.24 2380 2347 2333.76 2347 2276.75L2347 8.25397C2347-48.7714 2393.24-94.9999 2450.28-94.9999L3094.72-94.9999C3151.77-94.9999 3198-48.7714 3198 8.25397Z" fill="#7F7F7F" fill-rule="evenodd"/><path d="M2695 626.167 2695 2380 1844 2380 1844 626.167C1844 569.19 1890.18 523 1947.15 523L2591.84 523C2648.81 523 2695 569.19 2695 626.167Z" fill="#A6A6A6" fill-rule="evenodd"/><path d="M1342 1245.17 1342 2276.83C1342 2333.81 1388.13 2380 1445.03 2380L2192 2380 2192 1245.17C2192 1188.19 2145.87 1142 2088.97 1142L1445.03 1142C1388.13 1142 1342 1188.19 1342 1245.17Z" fill="#D9D9D9" fill-rule="evenodd"/></g></svg>