<svg width="512" height="512" xmlns="http://www.w3.org/2000/svg" xmlns:xlink="http://www.w3.org/1999/xlink" xml:space="preserve" overflow="hidden"><g transform="translate(-384 -104)"><path d="M672.096 178.125 693.493 178.125 693.493 301.922 672.096 301.922Z" fill="#F2F2F2"/><path d="M528.43 217.863 549.827 217.863 549.827 301.922 528.43 301.922Z" fill="#F2F2F2"/><path d="M456.597 191.116 477.994 191.116 477.994 301.922 456.597 301.922Z" fill="#F2F2F2"/><path d="M600.263 262.949 621.66 262.949 621.66 301.922 600.263 301.922Z" fill="#F2F2F2"/><path d="M729.409 612.179C747.749 612.179 762.269 597.66 762.269 579.319L762.269 521.242 670.567 612.943 729.409 612.943Z" fill="#F2F2F2"/><path d="M608.669 567.093 736.287 439.475C734.758 438.71 733.994 437.946 733.23 437.182L677.445 381.397C668.275 372.227 668.275 357.707 677.445 348.537L727.881 298.102C737.051 288.931 751.57 288.931 759.976 298.102L762.269 300.394 762.269 140.681C762.269 122.34 747.749 107.821 729.409 107.821L419.916 107.821C401.576 107.821 387.057 122.34 387.057 140.681L387.057 579.319C387.057 597.66 401.576 612.179 419.916 612.179L621.66 612.179 608.669 599.188C599.499 590.018 599.499 575.499 608.669 567.093ZM636.179 460.107 452.776 460.107C448.955 460.107 445.134 456.287 445.134 452.466 445.134 448.645 448.955 444.824 452.776 444.824L636.179 444.824C640.764 444.824 643.821 448.645 643.821 452.466 643.821 456.287 640 460.107 636.179 460.107ZM656.812 170.484C656.812 166.663 660.633 162.842 664.454 162.842L701.134 162.842C704.955 162.842 708.776 166.663 708.776 170.484L708.776 309.564C708.776 314.149 704.955 317.206 701.134 317.206L664.454 317.206C660.633 317.206 656.812 314.149 656.812 309.564ZM662.161 394.388C662.161 398.973 658.34 402.03 654.519 402.03L452.776 402.03C448.955 402.03 445.134 398.973 445.134 394.388 445.134 389.803 448.955 386.746 452.776 386.746L654.519 386.746C659.104 386.746 662.161 389.803 662.161 394.388ZM584.979 255.307C584.979 250.722 588.036 247.666 592.621 247.666L628.537 247.666C632.358 247.666 636.179 250.722 636.179 255.307L636.179 309.564C636.179 314.149 632.358 317.206 628.537 317.206L592.621 317.206C588.036 317.206 584.979 314.149 584.979 309.564ZM513.146 210.221C513.146 206.4 516.967 202.579 520.788 202.579L557.469 202.579C561.29 202.579 565.11 206.4 565.11 210.221L565.11 309.564C565.11 314.149 561.29 317.206 557.469 317.206L520.788 317.206C516.967 317.206 513.146 314.149 513.146 309.564ZM441.313 309.564 441.313 183.475C441.313 179.654 444.37 175.833 448.955 175.833L485.636 175.833C489.457 175.833 493.278 179.654 493.278 183.475L493.278 309.564C493.278 314.149 489.457 317.206 485.636 317.206L448.955 317.206C445.134 317.206 441.313 313.385 441.313 309.564ZM570.46 518.185 452.776 518.185C448.955 518.185 445.134 515.128 445.134 510.543 445.134 506.722 448.955 502.901 452.776 502.901L570.46 502.901C574.281 502.901 578.102 506.722 578.102 510.543 578.102 514.364 575.045 518.185 570.46 518.185Z" fill="#F2F2F2"/><path d="M619.367 577.791C616.31 580.848 616.31 585.433 619.367 588.49L640.764 609.887C642.292 611.415 644.585 612.179 646.113 612.179 648.406 612.179 649.934 611.415 651.463 609.887L784.43 476.919 752.334 444.824Z" fill="#F2F2F2"/><path d="M892.179 531.94C844.8 415.021 846.328 416.549 844.036 414.257 844.036 413.493 828.752 398.209 815.761 385.982L766.09 436.418 874.603 544.931C877.66 547.988 882.245 547.988 885.302 544.931L890.651 539.582C892.943 538.054 893.707 534.997 892.179 531.94Z" fill="#F2F2F2"/><path d="M738.579 308.8 688.143 359.236C686.615 360.764 685.851 362.293 685.851 364.585 685.851 366.878 686.615 368.406 688.143 369.934L743.928 425.719C746.985 428.776 751.57 428.776 754.627 425.719L805.063 375.284C808.119 372.227 808.119 367.642 805.063 364.585L749.278 308.8C746.985 305.743 741.636 305.743 738.579 308.8Z" fill="#F2F2F2"/></g></svg>