<svg width="512" height="512" xmlns="http://www.w3.org/2000/svg" xmlns:xlink="http://www.w3.org/1999/xlink" xml:space="preserve" overflow="hidden"><g transform="translate(-384 -104)"><path d="M871.36 352.632C865.234 346.551 856.306 344.243 848 346.592L848 144C848 130.745 837.255 120 824 120L504 120C490.745 120 480 130.745 480 144L480 288 448 288C446.981 288 445.971 288.193 445.024 288.568L405.024 304.568C401.987 305.785 399.998 308.729 400 312L400 424C400 426.68 401.343 429.182 403.576 430.664L427.656 446.664C428.967 447.535 430.506 447.999 432.08 448L480 448 480 576C480 589.255 490.745 600 504 600L824 600C837.255 600 848 589.255 848 576L848 409.944 871.368 386.576C880.739 377.202 880.737 362.006 871.363 352.635 871.362 352.634 871.361 352.633 871.36 352.632ZM496 144C496 139.582 499.582 136 504 136L824 136C828.418 136 832 139.582 832 144L832 358.056 816 374.056 816 160C816 155.582 812.418 152 808 152L520 152C515.582 152 512 155.582 512 160L512 288 496 288ZM690.344 533.656C691.844 535.157 693.878 535.999 696 536 697.238 536.01 698.461 535.737 699.576 535.2L744.8 512.528C745.571 512.144 746.274 511.636 746.88 511.024L800 457.944 800 552 528 552 528 352 544 352C544 356.418 547.582 360 552 360L776 360C780.418 360 784 356.418 784 352L784 256C784 251.582 780.418 248 776 248L720 248 720 232 728 232C732.418 232 736 228.418 736 224L736 192C736 187.582 732.418 184 728 184L600 184C595.582 184 592 187.582 592 192L592 224C592 228.418 595.582 232 600 232L608 232 608 248 552 248C547.582 248 544 251.582 544 256L544 288 528 288 528 168 800 168 800 390.056 712.976 477.088C712.364 477.694 711.856 478.397 711.472 479.168L688.8 524.424C687.273 527.513 687.895 531.232 690.344 533.656ZM704 344 688 344 688 304C688 299.582 684.418 296 680 296L648 296C643.582 296 640 299.582 640 304L640 344 624 344 624 264 704 264ZM672 344 656 344 656 312 672 312ZM720 296 736 296 736 312 720 312ZM720 328 736 328 736 344 720 344ZM752 328 768 328 768 344 752 344ZM768 312 752 312 752 296 768 296ZM768 280 752 280 752 264 768 264ZM736 280 720 280 720 264 736 264ZM608 216 608 200 720 200 720 216ZM704 232 704 248 624 248 624 232ZM608 280 592 280 592 264 608 264ZM576 280 560 280 560 264 576 264ZM564.944 296 608 296 608 312 584 312 584 328 608 328 608 344 564.944 344C578.199 332.667 579.757 312.735 568.425 299.481 567.357 298.232 566.193 297.068 564.944 296ZM434.496 432 416 419.712 416 317.416 449.536 304 544 304C552.837 304 560 311.163 560 320 560 328.837 552.837 336 544 336L472 336C467.582 336 464 339.582 464 344 464 357.255 453.255 368 440 368L440 384C459.002 383.979 475.375 370.613 479.2 352L480 352 480 432ZM832 576C832 580.418 828.418 584 824 584L504 584C499.582 584 496 580.418 496 576L496 352 512 352 512 560C512 564.418 515.582 568 520 568L808 568C812.418 568 816 564.418 816 560L816 441.944 832 425.944ZM860.048 375.264 736.512 498.8 713.888 510.112 725.2 487.488 848.736 363.952C851.914 360.882 856.978 360.97 860.048 364.149 863.042 367.249 863.042 372.164 860.048 375.264Z" fill="#F2F2F2"/><path d="M672 456 560 456C555.582 456 552 459.582 552 464L552 528C552 532.418 555.582 536 560 536L672 536C676.418 536 680 532.418 680 528L680 464C680 459.582 676.418 456 672 456ZM664 520 568 520 568 472 664 472Z" fill="#F2F2F2"/><path d="M605.312 511.68C606.99 511.678 608.624 511.15 609.984 510.168L626.656 498.168 643.328 510.168 652.672 497.184 631.328 481.832C628.537 479.824 624.775 479.824 621.984 481.832L605.312 493.832 588.68 481.832 579.32 494.808 600.632 510.168C601.994 511.151 603.632 511.68 605.312 511.68Z" fill="#F2F2F2"/><path d="M560 376 592 376 592 392 560 392Z" fill="#F2F2F2"/><path d="M608 376 768 376 768 392 608 392Z" fill="#F2F2F2"/><path d="M560 424 736 424 736 440 560 440Z" fill="#F2F2F2"/></g></svg>