<svg width="251" height="251" xmlns="http://www.w3.org/2000/svg" xmlns:xlink="http://www.w3.org/1999/xlink" xml:space="preserve" overflow="hidden"><defs><clipPath id="clip0"><rect x="628" y="348" width="251" height="251"/></clipPath></defs><g clip-path="url(#clip0)" transform="translate(-628 -348)"><path d="M628 431.667C628 408.596 646.762 389.833 669.833 389.833L847.154 389.833 833.14 376.53C828.936 372.577 828.737 365.957 832.701 361.742 836.665 357.528 843.274 357.339 847.489 361.303L872.631 384.97C876.772 389.091 879.021 394.592 879.021 400.292 879.021 405.991 876.772 411.503 872.84 415.414L847.489 439.28C845.471 441.184 842.898 442.125 840.315 442.125 837.533 442.125 834.761 441.027 832.701 438.841 828.737 434.637 828.946 428.017 833.14 424.053L847.269 410.75 669.833 410.75C658.298 410.75 648.917 420.131 648.917 431.667 648.917 443.202 658.298 452.583 669.833 452.583L818.038 452.583C835.734 452.583 851.589 463.795 857.487 480.476 859.412 485.924 856.556 491.896 851.108 493.821 849.957 494.228 848.775 494.427 847.625 494.427 843.316 494.427 839.279 491.739 837.763 487.451 834.814 479.116 826.886 473.51 818.038 473.51L669.833 473.51C646.762 473.51 628 454.748 628 431.677ZM763.801 507.72C759.587 503.756 752.988 503.955 749.013 508.159 745.05 512.363 745.259 518.983 749.453 522.947L763.467 536.25 722.104 536.25C716.331 536.25 711.646 540.935 711.646 546.708 711.646 552.481 716.331 557.167 722.104 557.167L763.582 557.167 749.453 570.47C745.248 574.423 745.05 581.043 749.013 585.258 751.074 587.444 753.845 588.542 756.627 588.542 759.2 588.542 761.773 587.6 763.801 585.697L789.152 561.831C793.074 557.92 795.333 552.408 795.333 546.708 795.333 541.009 793.085 535.497 788.943 531.387L763.801 507.72ZM669.833 515.333 648.917 515.333C637.381 515.333 628 524.714 628 536.25L628 557.167C628 568.702 637.381 578.083 648.917 578.083L669.833 578.083C681.369 578.083 690.75 568.702 690.75 557.167L690.75 536.25C690.75 524.714 681.369 515.333 669.833 515.333ZM858.083 515.333 837.167 515.333C825.631 515.333 816.25 524.714 816.25 536.25L816.25 557.167C816.25 568.702 825.631 578.083 837.167 578.083L858.083 578.083C869.619 578.083 879 568.702 879 557.167L879 536.25C879 524.714 869.619 515.333 858.083 515.333Z" fill="#F2F2F2"/></g></svg>