<svg width="1760" height="1689" xmlns="http://www.w3.org/2000/svg" xmlns:xlink="http://www.w3.org/1999/xlink" xml:space="preserve" overflow="hidden"><defs><clipPath id="clip0"><rect x="1320" y="393" width="1760" height="1689"/></clipPath></defs><g clip-path="url(#clip0)" transform="translate(-1320 -393)"><path d="M1354 428 1734 428 1734 743 1354 743Z" fill="#00D5F5" fill-rule="evenodd"/><path d="M1734 428 2768 428 2768 743 1734 743Z" fill="#FFFFFF" fill-rule="evenodd"/><path d="M1354 915 1734 915 1734 1230 1354 1230Z" fill="#FF7E96" fill-rule="evenodd"/><path d="M1734 915 2768 915 2768 1230 1734 1230Z" fill="#FFFFFF" fill-rule="evenodd"/><path d="M1354 1402 1734 1402 1734 1717 1354 1717Z" fill="#00D5F5" fill-rule="evenodd"/><path d="M2587 1402C2511.29 1432.1 2446.47 1488.94 2416.96 1563.12L2281.69 1563.12 2376.16 1695.72C2375.06 1706.77 2375.26 1710.58 2375.78 1717L1734 1717 1734 1402Z" fill="#FFFFFF" fill-rule="evenodd"/><path d="M2693.79 1378.47C2577.05 1384.58 2460.22 1455.81 2417.42 1563.29L2282 1563.29 2376.56 1696.04C2374.94 1712.57 2376.14 1712.9 2377.04 1729.99 2386.71 1914.47 2544.19 2056.2 2728.79 2046.53 2913.39 2036.88 3055.2 1879.49 3045.53 1695.01 3035.87 1510.53 2878.39 1368.81 2693.79 1378.47Z" fill="#FFCE62" fill-rule="evenodd"/><path d="M1354.38 778 2096.67 778C2115.66 778 2131.05 762.578 2131.05 743.561 2131.05 724.544 2115.66 709.123 2096.67 709.123L1768.01 709.123 1768.01 461.877 2734.24 461.877 2734.24 709.123 2399.24 709.123C2380.25 709.123 2364.86 724.544 2364.86 743.561 2364.86 762.578 2380.25 778 2399.24 778L2768.62 778C2787.61 778 2803 762.578 2803 743.561L2803 427.439C2803 408.422 2787.61 393 2768.62 393L1354.38 393C1335.39 393 1320 408.422 1320 427.439L1320 743.561C1320 762.578 1335.39 778 1354.38 778ZM1388.76 461.877 1699.25 461.877 1699.25 709.123 1388.76 709.123Z" fill-rule="evenodd"/><path d="M1354.38 1265 2768.62 1265C2787.61 1265 2803 1249.58 2803 1230.56L2803 914.439C2803 895.422 2787.61 880 2768.62 880L1354.38 880C1335.39 880 1320 895.422 1320 914.439L1320 1230.56C1320 1249.58 1335.39 1265 1354.38 1265ZM2734.24 1196.12 1768.01 1196.12 1768.01 948.877 2734.24 948.877ZM1388.76 948.877 1699.25 948.877 1699.25 1196.12 1388.76 1196.12Z" fill-rule="evenodd"/><path d="M2691.67 1343.51C2654.47 1345.46 2616.86 1353.59 2581.2 1367.02L1354.38 1367.01C1335.39 1367.01 1320 1382.42 1320 1401.43L1320 1717.37C1320 1736.38 1335.39 1751.79 1354.38 1751.79L2344.05 1751.79C2359.5 1898.06 2464.27 2024.66 2605.2 2066.69 2645.66 2078.76 2688.12 2083.7 2730.27 2081.49 2828.7 2076.33 2919.23 2033.09 2985.19 1959.75 3051.15 1886.41 3084.64 1791.74 3079.48 1693.18 3068.84 1489.72 2894.84 1332.84 2691.67 1343.51ZM2401.95 1515.45C2399.5 1519.78 2397.13 1524.16 2394.92 1528.61L2281.77 1528.61C2268.9 1528.61 2257.11 1535.81 2251.21 1547.26 2245.38 1558.58 2246.4 1572.63 2253.77 1583L2324.82 1682.95 1767.95 1682.95 1767.95 1435.86 2466.54 1435.86C2440.2 1459.35 2418.45 1486.16 2401.95 1515.45ZM1388.75 1435.85 1699.2 1435.85 1699.2 1682.95 1388.75 1682.95ZM2934.11 1913.68C2880.44 1973.36 2806.77 2008.54 2726.68 2012.74 2563.19 2021.28 2419.68 1891.89 2411.12 1728.22 2410.61 1718.48 2409.56 1709.18 2410.53 1699.43 2411.35 1691.15 2409.15 1682.85 2404.32 1676.06L2348.44 1597.46 2417.17 1597.46C2431.25 1597.46 2443.91 1588.85 2449.11 1575.75 2487.76 1478.4 2593.76 1417.58 2695.27 1412.26 2860.6 1403.63 3002.17 1531.22 3010.83 1696.77 3015.02 1776.98 2987.77 1854.01 2934.11 1913.68Z" fill-rule="evenodd"/><path d="M2609 581C2609 562.225 2593.61 547 2574.63 547L1929.38 547C1910.39 547 1895 562.225 1895 581 1895 599.775 1910.39 615 1929.38 615L2574.63 615C2593.61 615 2609 599.775 2609 581Z" fill-rule="evenodd"/><path d="M1929.38 1107 2574.63 1107C2593.61 1107 2609 1091.55 2609 1072.5 2609 1053.45 2593.61 1038 2574.63 1038L1929.38 1038C1910.39 1038 1895 1053.45 1895 1072.5 1895 1091.55 1910.39 1107 1929.38 1107Z" fill-rule="evenodd"/><path d="M1929.34 1599 2131.66 1599C2150.62 1599 2166 1583.55 2166 1564.5 2166 1545.45 2150.62 1530 2131.66 1530L1929.34 1530C1910.38 1530 1895 1545.45 1895 1564.5 1895 1583.55 1910.38 1599 1929.34 1599Z" fill-rule="evenodd"/><path d="M1578.49 521.034 1517.25 582.269 1497.51 562.523C1484.12 549.145 1462.42 549.145 1449.04 562.523 1435.65 575.905 1435.65 597.604 1449.04 610.989L1493.02 654.963C1499.71 661.652 1508.48 665 1517.25 665 1526.02 665 1534.8 661.652 1541.49 654.963L1626.96 569.5C1640.35 556.118 1640.35 534.419 1626.96 521.034 1613.58 507.656 1591.88 507.656 1578.49 521.034Z" fill-rule="evenodd"/><path d="M1630.94 1494.06C1617.53 1480.65 1595.79 1480.65 1582.38 1494.06L1517.41 1559.05 1497.62 1539.26C1484.21 1525.84 1462.47 1525.84 1449.06 1539.26 1435.65 1552.67 1435.65 1574.43 1449.06 1587.85L1493.13 1631.94C1499.84 1638.64 1508.62 1642 1517.41 1642 1526.2 1642 1534.99 1638.64 1541.69 1631.94L1630.94 1542.65C1644.35 1529.23 1644.36 1507.48 1630.94 1494.06Z" fill-rule="evenodd"/><path d="M1592.13 1073.5 1610.93 1054.69C1624.36 1041.27 1624.36 1019.5 1610.93 1006.07 1597.5 992.644 1575.73 992.644 1562.3 1006.07L1543.5 1024.87 1524.7 1006.07C1511.27 992.647 1489.5 992.644 1476.07 1006.07 1462.64 1019.49 1462.64 1041.26 1476.07 1054.69L1494.88 1073.5 1476.07 1092.3C1462.64 1105.73 1462.64 1127.5 1476.07 1140.93 1482.79 1147.64 1491.58 1151 1500.38 1151 1509.18 1151 1517.98 1147.64 1524.7 1140.93L1543.5 1122.13 1562.3 1140.93C1569.02 1147.64 1577.82 1151 1586.61 1151 1595.41 1151 1604.22 1147.64 1610.93 1140.93 1624.35 1127.5 1624.36 1105.73 1610.93 1092.3Z" fill-rule="evenodd"/><path d="M2279.36 724.388C2271.41 712.03 2255.91 706.292 2241.98 710.228 2228.23 714.117 2218.2 726.609 2217.1 741.073 2214.78 771.728 2251.95 789.817 2274.06 769.167 2286.3 757.742 2288.56 738.429 2279.36 724.388Z" fill-rule="evenodd"/><g><g><g><path d="M2863.97 1602.31 2687.97 1768.69 2603.41 1682.06 2574.19 1709.91 2686.59 1825.41 2716.16 1797.91 2891.81 1631.19Z"/></g></g></g></g></svg>