<svg width="512" height="512" xmlns="http://www.w3.org/2000/svg" xmlns:xlink="http://www.w3.org/1999/xlink" xml:space="preserve" overflow="hidden"><g transform="translate(-544 -66)"><path d="M1041.5 497.468 1032.7 497.468 1032.7 214.344C1032.7 199.18 1020.37 186.844 1005.2 186.844L944.173 186.844C936.176 180.318 926.214 176.172 915.46 175.385 912.483 158.992 904.214 144.017 891.753 132.667 878.85 120.913 862.494 113.999 845.228 112.909 831.18 81.5301 797.645 64.623 764.894 70.596 760.819 71.339 758.118 75.2451 758.861 79.3201 759.604 83.3961 763.509 86.0942 767.585 85.3531 795.346 80.2901 823.185 95.8462 833.083 122.839 834.166 125.794 836.979 127.757 840.125 127.757 840.21 127.758 840.301 127.757 840.389 127.757 855.673 127.757 870.32 133.435 881.653 143.758 891.231 152.483 897.726 163.869 900.366 176.363 895.04 177.458 889.889 179.381 885.168 182.06 881.565 184.104 880.302 188.682 882.347 192.285 884.385 195.877 888.957 197.156 892.572 195.106 914.049 182.917 944.387 194.541 947.727 222.012 950.414 244.116 933.006 264.068 911.723 264.068L705.178 264.068C675.856 264.068 652 240.212 652 210.889 652 181.718 676.017 155.003 711.732 158.106 726.299 159.843 730.303 165.405 734.917 165.405 742.614 165.405 745.319 155.117 738.581 151.355 732.549 147.988 726.141 145.589 719.453 144.187 719.104 126.206 727.023 109.07 741.272 97.5062 744.488 94.8962 744.98 90.1732 742.369 86.9572 739.76 83.7401 735.035 83.2491 731.819 85.8602 714.407 99.9873 704.531 120.77 704.441 142.715 676.224 143.044 651.281 160.611 641.387 186.843L594.797 186.843C579.633 186.843 567.297 199.179 567.297 214.343L567.297 497.468 558.5 497.468C550.505 497.468 544 503.973 544 511.969L544 547.094C544 562.258 556.336 574.594 571.5 574.594L1028.5 574.594C1043.66 574.594 1056 562.258 1056 547.094L1056 511.969C1056 503.973 1049.49 497.468 1041.5 497.468ZM800 372.528C804.428 372.528 808.031 376.131 808.031 380.559 808.031 384.987 804.428 388.591 800 388.591 795.572 388.591 791.969 384.987 791.969 380.559 791.969 376.131 795.572 372.528 800 372.528ZM582.297 214.344C582.297 207.451 587.904 201.844 594.797 201.844L637.604 201.844C636.893 207.15 636.809 212.549 637.359 217.906L612.86 217.906C604.865 217.906 598.359 224.411 598.359 232.406L598.359 466.906C598.359 474.901 604.865 481.406 612.86 481.406L987.141 481.406C995.135 481.406 1001.64 474.901 1001.64 466.906L1001.64 316.396C1001.64 312.254 998.283 308.896 994.141 308.896 989.999 308.896 986.641 312.254 986.641 316.396L986.641 466.405 613.36 466.405 613.36 232.906 640.649 232.906C649.826 259.729 675.287 279.065 705.178 279.065L714.844 279.065 714.844 298.269 656.865 327.259C654.324 328.53 652.719 331.126 652.719 333.967L652.719 358.783C643.691 361.901 637.188 370.485 637.188 380.56 637.188 393.261 647.52 403.592 660.219 403.592 672.919 403.592 683.25 393.26 683.25 380.56 683.25 370.485 676.747 361.901 667.719 358.783L667.719 338.602 725.698 309.612C728.239 308.342 729.844 305.745 729.844 302.904L729.844 279.065 753.673 279.065 753.673 313.8 726.755 327.259C724.214 328.529 722.609 331.126 722.609 333.967L722.609 358.783C713.58 361.901 707.078 370.485 707.078 380.56 707.078 393.261 717.41 403.592 730.109 403.592 742.809 403.592 753.141 393.26 753.141 380.56 753.141 370.485 746.638 361.901 737.609 358.783L737.609 338.602 764.527 325.144C767.068 323.874 768.673 321.277 768.673 318.436L768.673 279.066 792.501 279.066 792.501 358.783C783.472 361.901 776.97 370.485 776.97 380.56 776.97 393.261 787.302 403.592 800.001 403.592 812.7 403.592 823.032 393.26 823.032 380.56 823.032 370.485 816.529 361.901 807.501 358.783L807.501 279.066 831.329 279.066 831.329 318.436C831.329 321.277 832.934 323.874 835.475 325.144L862.393 338.602 862.393 358.783C853.363 361.901 846.861 370.485 846.861 380.56 846.861 393.261 857.193 403.592 869.893 403.592 882.592 403.592 892.924 393.26 892.924 380.56 892.924 370.485 886.421 361.901 877.393 358.783L877.393 333.967C877.393 331.126 875.788 328.529 873.247 327.259L846.329 313.8 846.329 279.065 870.158 279.065 870.158 302.904C870.158 305.745 871.763 308.342 874.304 309.612L932.283 338.602 932.283 358.783C923.254 361.901 916.752 370.485 916.752 380.56 916.752 393.261 927.084 403.592 939.783 403.592 952.482 403.592 962.814 393.26 962.814 380.56 962.814 370.485 956.312 361.901 947.283 358.783L947.283 333.967C947.283 331.126 945.678 328.529 943.137 327.259L885.158 298.269 885.158 279.065 911.723 279.065C937.446 279.065 959.401 258.846 962.603 232.906L986.641 232.906 986.641 283.711C986.641 287.853 990 291.211 994.142 291.211 998.284 291.211 1001.64 287.853 1001.64 283.711L1001.64 232.406C1001.64 224.411 995.137 217.906 987.141 217.906L962.286 217.906C961.32 212.147 959.396 206.743 956.697 201.844L1005.2 201.844C1012.1 201.844 1017.7 207.451 1017.7 214.344L1017.7 497.469 582.297 497.469ZM660.219 372.528C664.647 372.528 668.25 376.131 668.25 380.559 668.25 384.987 664.647 388.591 660.219 388.591 655.791 388.591 652.188 384.987 652.188 380.559 652.188 376.131 655.791 372.528 660.219 372.528ZM730.109 372.528C734.537 372.528 738.141 376.131 738.141 380.559 738.141 384.987 734.537 388.591 730.109 388.591 725.681 388.591 722.078 384.987 722.078 380.559 722.078 376.131 725.681 372.528 730.109 372.528ZM869.891 372.528C874.319 372.528 877.922 376.131 877.922 380.559 877.922 384.987 874.319 388.591 869.891 388.591 865.463 388.591 861.859 384.987 861.859 380.559 861.859 376.131 865.463 372.528 869.891 372.528ZM939.781 372.528C944.209 372.528 947.812 376.131 947.812 380.559 947.812 384.987 944.209 388.591 939.781 388.591 935.353 388.591 931.75 384.987 931.75 380.559 931.75 376.131 935.353 372.528 939.781 372.528ZM1041 547.094C1041 553.987 1035.39 559.594 1028.5 559.594L571.5 559.594C564.607 559.594 559 553.987 559 547.094L559 512.469 699.313 512.469 699.313 536.031C699.313 540.173 702.671 543.531 706.813 543.531L749.655 543.531C753.797 543.531 757.155 540.173 757.155 536.031 757.155 531.889 753.797 528.531 749.655 528.531L714.313 528.531 714.313 512.469 885.688 512.469 885.688 528.531 782.341 528.531C778.199 528.531 774.841 531.889 774.841 536.031 774.841 540.173 778.199 543.531 782.341 543.531L893.188 543.531C897.33 543.531 900.688 540.173 900.688 536.031L900.688 512.469 1041 512.469 1041 547.094Z" fill="#A6A6A6"/><path d="M714.843 237.778 714.843 240.778C714.843 244.92 718.201 248.278 722.343 248.278 726.485 248.278 729.843 244.92 729.843 240.778L729.843 237.778C729.843 233.636 726.485 230.278 722.343 230.278 718.201 230.278 714.843 233.636 714.843 237.778Z" fill="#A6A6A6"/><path d="M761.172 248.278C765.314 248.278 768.672 244.92 768.672 240.778L768.672 237.778C768.672 233.636 765.314 230.278 761.172 230.278 757.03 230.278 753.672 233.636 753.672 237.778L753.672 240.778C753.672 244.92 757.03 248.278 761.172 248.278Z" fill="#A6A6A6"/><path d="M807.5 240.778 807.5 237.778C807.5 233.636 804.142 230.278 800 230.278 795.858 230.278 792.5 233.636 792.5 237.778L792.5 240.778C792.5 244.92 795.858 248.278 800 248.278 804.142 248.278 807.5 244.92 807.5 240.778Z" fill="#A6A6A6"/><path d="M846.328 240.778 846.328 237.778C846.328 233.636 842.97 230.278 838.828 230.278 834.686 230.278 831.328 233.636 831.328 237.778L831.328 240.778C831.328 244.92 834.686 248.278 838.828 248.278 842.97 248.278 846.328 244.92 846.328 240.778Z" fill="#A6A6A6"/><path d="M885.157 240.778 885.157 237.778C885.157 233.636 881.799 230.278 877.657 230.278 873.515 230.278 870.157 233.636 870.157 237.778L870.157 240.778C870.157 244.92 873.515 248.278 877.657 248.278 881.799 248.278 885.157 244.92 885.157 240.778Z" fill="#A6A6A6"/></g></svg>