<svg width="94" height="95" xmlns="http://www.w3.org/2000/svg" xmlns:xlink="http://www.w3.org/1999/xlink" xml:space="preserve" overflow="hidden"><g transform="translate(-1073 -98)"><path d="M42.5938 64.625 8.8125 64.625C7.19688 64.625 5.875 63.3031 5.875 61.6875L5.875 11.75C5.875 10.1344 7.19688 8.8125 8.8125 8.8125L80.7812 8.8125C82.3969 8.8125 83.7188 10.1344 83.7188 11.75L83.7188 45.1787C83.7188 45.9866 84.3797 46.6475 85.1875 46.6475 85.9953 46.6475 86.6562 45.9866 86.6562 45.1787L86.6562 11.75C86.6562 8.50406 84.0272 5.875 80.7812 5.875L8.8125 5.875C5.56656 5.875 2.9375 8.50406 2.9375 11.75L2.9375 61.6875C2.9375 64.9334 5.56656 67.5625 8.8125 67.5625L42.5938 67.5625C43.4016 67.5625 44.0625 66.9016 44.0625 66.0938 44.0625 65.2859 43.4016 64.625 42.5938 64.625Z" fill="#A6A6A6" transform="matrix(1 0 0 1.01064 1073 98)"/><path d="M91.0625 66.0938C91.0625 53.9472 81.1778 44.0625 69.0312 44.0625 56.8847 44.0625 47 53.9472 47 66.0938 47 78.2403 56.8847 88.125 69.0312 88.125 74.9062 88.125 80.4287 85.8337 84.6147 81.6772 88.8006 77.5206 84.6147 81.6772 84.6147 81.6772 88.7712 77.5059 91.0625 71.9688 91.0625 66.0938ZM83.5278 78.5194 79.3566 74.3481C80.9281 72.38 81.8975 70.0447 82.1619 67.5625L88.0662 67.5625C87.7578 71.6162 86.1862 75.4203 83.5278 78.5194ZM69.0312 55.8125C74.7006 55.8125 79.3125 60.4244 79.3125 66.0938 79.3125 68.8256 78.2403 71.4106 76.3016 73.3641 74.3481 75.3028 71.7631 76.375 69.0312 76.375 63.3619 76.375 58.75 71.7631 58.75 66.0938 58.75 60.4244 63.3619 55.8125 69.0312 55.8125ZM88.0662 64.625 82.1619 64.625C81.4863 58.5003 76.61 53.6388 70.5 52.9631L70.5 47.0588C79.8559 47.7784 87.3466 55.2691 88.0662 64.625ZM69.0312 85.1875C58.5003 85.1875 49.9375 76.6247 49.9375 66.0938 49.9375 55.5628 57.7219 47.8078 67.5625 47.0588L67.5625 52.9631C60.9678 53.6975 55.8125 59.3081 55.8125 66.0938 55.8125 73.3787 61.7463 79.3125 69.0312 79.3125 72.0569 79.3125 74.9356 78.2991 77.2856 76.4191L81.4569 80.5903C77.9906 83.5572 73.6284 85.1875 69.0312 85.1875Z" fill="#A6A6A6" transform="matrix(1 0 0 1.01064 1073 98)"/><path d="M48.4688 29.375C48.4688 28.5966 48.2484 27.8622 47.8812 27.2306L52.7134 21.7081C53.2128 21.9137 53.7562 22.0312 54.3291 22.0312 54.9019 22.0312 55.4453 21.9137 55.9447 21.7081L60.7769 27.2306C60.4244 27.8622 60.1894 28.5966 60.1894 29.375 60.1894 31.7984 62.1722 33.7812 64.5956 33.7812 67.0191 33.7812 69.0019 31.7984 69.0019 29.375 69.0019 28.5966 68.7816 27.8622 68.4144 27.2306L73.2466 21.7081C73.7459 21.9137 74.2894 22.0312 74.8622 22.0312 77.2856 22.0312 79.2684 20.0484 79.2684 17.625 79.2684 15.2016 77.2856 13.2188 74.8622 13.2188 72.4388 13.2188 70.4559 15.2016 70.4559 17.625 70.4559 18.4034 70.6762 19.1378 71.0434 19.7694L66.2113 25.2919C65.7119 25.0863 65.1684 24.9688 64.5956 24.9688 64.0228 24.9688 63.4794 25.0863 62.98 25.2919L58.1478 19.7694C58.5003 19.1378 58.7353 18.4034 58.7353 17.625 58.7353 15.2016 56.7525 13.2188 54.3291 13.2188 51.9056 13.2188 49.9228 15.2016 49.9228 17.625 49.9228 18.4034 50.1431 19.1378 50.5103 19.7694L45.6781 25.2919C45.1787 25.0863 44.6353 24.9688 44.0625 24.9688 41.6391 24.9688 39.6562 26.9516 39.6562 29.375 39.6562 31.7984 41.6391 33.7812 44.0625 33.7812 46.4859 33.7812 48.4688 31.7984 48.4688 29.375ZM74.9062 16.1562C75.7141 16.1562 76.375 16.8172 76.375 17.625 76.375 18.4328 75.7141 19.0938 74.9062 19.0938 74.0984 19.0938 73.4375 18.4328 73.4375 17.625 73.4375 16.8172 74.0984 16.1562 74.9062 16.1562ZM66.0938 29.375C66.0938 30.1828 65.4328 30.8438 64.625 30.8438 63.8172 30.8438 63.1562 30.1828 63.1562 29.375 63.1562 28.5672 63.8172 27.9062 64.625 27.9062 65.4328 27.9062 66.0938 28.5672 66.0938 29.375ZM54.3438 16.1562C55.1516 16.1562 55.8125 16.8172 55.8125 17.625 55.8125 18.4328 55.1516 19.0938 54.3438 19.0938 53.5359 19.0938 52.875 18.4328 52.875 17.625 52.875 16.8172 53.5359 16.1562 54.3438 16.1562ZM44.0625 30.8438C43.2547 30.8438 42.5938 30.1828 42.5938 29.375 42.5938 28.5672 43.2547 27.9062 44.0625 27.9062 44.8703 27.9062 45.5312 28.5672 45.5312 29.375 45.5312 30.1828 44.8703 30.8438 44.0625 30.8438Z" fill="#A6A6A6" transform="matrix(1 0 0 1.01064 1073 98)"/><path d="M10.2812 58.75C10.2812 59.5578 10.9422 60.2188 11.75 60.2188L17.625 60.2188C18.4328 60.2188 19.0938 59.5578 19.0938 58.75L19.0938 42.5938C19.0938 41.7859 18.4328 41.125 17.625 41.125L11.75 41.125C10.9422 41.125 10.2812 41.7859 10.2812 42.5938ZM13.2188 44.0625 16.1562 44.0625 16.1562 57.2812 13.2188 57.2812Z" fill="#A6A6A6" transform="matrix(1 0 0 1.01064 1073 98)"/><path d="M23.5 35.25C22.6922 35.25 22.0312 35.9109 22.0312 36.7188L22.0312 58.75C22.0312 59.5578 22.6922 60.2188 23.5 60.2188L29.375 60.2188C30.1828 60.2188 30.8438 59.5578 30.8438 58.75L30.8438 36.7188C30.8438 35.9109 30.1828 35.25 29.375 35.25ZM27.9062 57.2812 24.9688 57.2812 24.9688 38.1875 27.9062 38.1875Z" fill="#A6A6A6" transform="matrix(1 0 0 1.01064 1073 98)"/><path d="M35.25 60.2188 41.125 60.2188C41.9328 60.2188 42.5938 59.5578 42.5938 58.75L42.5938 47C42.5938 46.1922 41.9328 45.5312 41.125 45.5312L35.25 45.5312C34.4422 45.5312 33.7812 46.1922 33.7812 47L33.7812 58.75C33.7812 59.5578 34.4422 60.2188 35.25 60.2188ZM36.7188 48.4688 39.6562 48.4688 39.6562 57.2812 36.7188 57.2812Z" fill="#A6A6A6" transform="matrix(1 0 0 1.01064 1073 98)"/><path d="M11.75 16.1562 14.6875 16.1562C15.4953 16.1562 16.1562 15.4953 16.1562 14.6875 16.1562 13.8797 15.4953 13.2188 14.6875 13.2188L11.75 13.2188C10.9422 13.2188 10.2812 13.8797 10.2812 14.6875 10.2812 15.4953 10.9422 16.1562 11.75 16.1562Z" fill="#A6A6A6" transform="matrix(1 0 0 1.01064 1073 98)"/><path d="M20.5625 16.1562 32.3125 16.1562C33.1203 16.1562 33.7812 15.4953 33.7812 14.6875 33.7812 13.8797 33.1203 13.2188 32.3125 13.2188L20.5625 13.2188C19.7547 13.2188 19.0938 13.8797 19.0938 14.6875 19.0938 15.4953 19.7547 16.1562 20.5625 16.1562Z" fill="#A6A6A6" transform="matrix(1 0 0 1.01064 1073 98)"/><path d="M11.75 23.5 14.6875 23.5C15.4953 23.5 16.1562 22.8391 16.1562 22.0312 16.1562 21.2234 15.4953 20.5625 14.6875 20.5625L11.75 20.5625C10.9422 20.5625 10.2812 21.2234 10.2812 22.0312 10.2812 22.8391 10.9422 23.5 11.75 23.5Z" fill="#A6A6A6" transform="matrix(1 0 0 1.01064 1073 98)"/><path d="M20.5625 23.5 32.3125 23.5C33.1203 23.5 33.7812 22.8391 33.7812 22.0312 33.7812 21.2234 33.1203 20.5625 32.3125 20.5625L20.5625 20.5625C19.7547 20.5625 19.0938 21.2234 19.0938 22.0312 19.0938 22.8391 19.7547 23.5 20.5625 23.5Z" fill="#A6A6A6" transform="matrix(1 0 0 1.01064 1073 98)"/><path d="M11.75 30.8438 14.6875 30.8438C15.4953 30.8438 16.1562 30.1828 16.1562 29.375 16.1562 28.5672 15.4953 27.9062 14.6875 27.9062L11.75 27.9062C10.9422 27.9062 10.2812 28.5672 10.2812 29.375 10.2812 30.1828 10.9422 30.8438 11.75 30.8438Z" fill="#A6A6A6" transform="matrix(1 0 0 1.01064 1073 98)"/><path d="M33.7812 29.375C33.7812 28.5672 33.1203 27.9062 32.3125 27.9062L20.5625 27.9062C19.7547 27.9062 19.0938 28.5672 19.0938 29.375 19.0938 30.1828 19.7547 30.8438 20.5625 30.8438L32.3125 30.8438C33.1203 30.8438 33.7812 30.1828 33.7812 29.375Z" fill="#A6A6A6" transform="matrix(1 0 0 1.01064 1073 98)"/></g></svg>