<svg width="568" height="568" xmlns="http://www.w3.org/2000/svg" xmlns:xlink="http://www.w3.org/1999/xlink" xml:space="preserve" overflow="hidden"><g transform="translate(-356 -76)"><path d="M640.448 545.219C633.624 545.219 628.1 539.692 628.1 532.867L628.1 347.649C628.1 340.831 633.624 335.303 640.448 335.303 647.266 335.303 652.795 340.831 652.795 347.649L652.795 532.867C652.795 539.692 647.266 545.219 640.448 545.219Z" fill="#F2F2F2"/><path d="M640.448 360.002C638.334 360.002 636.221 359.461 634.326 358.378L547.805 308.986C543.953 306.789 541.58 302.692 541.58 298.263L541.58 199.478C541.58 195.048 543.953 190.952 547.805 188.755L634.326 139.363C638.116 137.198 642.774 137.198 646.569 139.363L733.09 188.755C736.937 190.952 739.315 195.048 739.315 199.478L739.315 298.263C739.315 302.692 736.937 306.789 733.09 308.986L646.569 358.378C644.669 359.461 642.561 360.002 640.448 360.002ZM566.273 291.09 640.448 333.434 714.617 291.09 714.617 206.651 640.448 164.306 566.273 206.651Z" fill="#F2F2F2"/><path d="M906.305 322.956 782.827 322.956C776.012 322.956 770.479 317.429 770.479 310.609L770.479 236.524C770.479 229.705 776.007 224.171 782.827 224.171L906.305 224.171C913.123 224.171 918.656 229.705 918.656 236.524L918.656 310.609C918.656 317.429 913.123 322.956 906.305 322.956ZM795.178 298.263 893.957 298.263 893.957 248.87 795.178 248.87Z" fill="#F2F2F2"/><path d="M906.305 446.434 782.827 446.434C776.012 446.434 770.479 440.907 770.479 434.088L770.479 360.002C770.479 353.183 776.007 347.649 782.827 347.649L906.305 347.649C913.123 347.649 918.656 353.183 918.656 360.002L918.656 434.088C918.656 440.907 913.123 446.434 906.305 446.434ZM795.178 421.741 893.957 421.741 893.957 372.349 795.178 372.349Z" fill="#F2F2F2"/><path d="M906.305 569.912 782.827 569.912C776.012 569.912 770.479 564.385 770.479 557.566L770.479 483.475C770.479 476.661 776.007 471.128 782.827 471.128L906.305 471.128C913.123 471.128 918.656 476.656 918.656 483.475L918.656 557.566C918.656 564.385 913.123 569.912 906.305 569.912ZM795.178 545.219 893.957 545.219 893.957 495.827 795.178 495.827Z" fill="#F2F2F2"/><path d="M498.83 322.956 375.351 322.956C368.532 322.956 363.004 317.429 363.004 310.609L363.004 236.524C363.004 229.705 368.532 224.171 375.351 224.171L498.83 224.171C505.648 224.171 511.176 229.705 511.176 236.524L511.176 310.609C511.176 317.429 505.648 322.956 498.83 322.956ZM387.698 298.263 486.483 298.263 486.483 248.87 387.698 248.87Z" fill="#F2F2F2"/><path d="M498.83 446.434 375.351 446.434C368.532 446.434 363.004 440.907 363.004 434.088L363.004 360.002C363.004 353.183 368.532 347.649 375.351 347.649L498.83 347.649C505.648 347.649 511.176 353.183 511.176 360.002L511.176 434.088C511.176 440.907 505.648 446.434 498.83 446.434ZM387.698 421.741 486.483 421.741 486.483 372.349 387.698 372.349Z" fill="#F2F2F2"/><path d="M498.83 569.912 375.351 569.912C368.532 569.912 363.004 564.385 363.004 557.566L363.004 483.475C363.004 476.661 368.532 471.128 375.351 471.128L498.83 471.128C505.648 471.128 511.176 476.656 511.176 483.475L511.176 557.566C511.176 564.385 505.648 569.912 498.83 569.912ZM387.698 545.219 486.483 545.219 486.483 495.827 387.698 495.827Z" fill="#F2F2F2"/><path d="M697.216 643.999 584.44 643.999C557.659 643.999 535.869 622.214 535.869 595.434L535.869 569.09C535.869 542.309 557.659 520.521 584.44 520.521L697.216 520.521C723.996 520.521 745.786 542.309 745.786 569.09L745.786 595.434C745.786 622.214 723.996 643.999 697.216 643.999ZM584.44 545.219C571.276 545.219 560.569 555.926 560.569 569.09L560.569 595.434C560.569 608.599 571.276 619.305 584.44 619.305L697.216 619.305C710.379 619.305 721.087 608.599 721.087 595.434L721.087 569.09C721.087 555.926 710.379 545.219 697.216 545.219Z" fill="#F2F2F2"/><path d="M807.525 162.433 474.13 162.433C467.312 162.433 461.784 156.91 461.784 150.086L461.784 88.3468C461.784 81.5279 467.312 76 474.13 76L807.525 76C814.344 76 819.871 81.5279 819.871 88.3468L819.871 150.086C819.871 156.91 814.344 162.433 807.525 162.433ZM486.483 137.739 795.178 137.739 795.178 100.693 486.483 100.693Z" fill="#F2F2F2"/><path d="M609.961 211.825 634.654 211.825 634.654 236.524 609.961 236.524Z" fill="#F2F2F2"/><path d="M647.001 211.825 671.7 211.825 671.7 236.524 647.001 236.524Z" fill="#F2F2F2"/><path d="M609.961 248.87 634.654 248.87 634.654 273.57 609.961 273.57Z" fill="#F2F2F2"/><path d="M647.001 248.87 671.7 248.87 671.7 273.57 647.001 273.57Z" fill="#F2F2F2"/><path d="M548.222 285.91 449.437 285.91C442.618 285.91 437.09 280.388 437.09 273.564 437.09 266.746 442.618 261.217 449.437 261.217L548.222 261.217C555.04 261.217 560.569 266.746 560.569 273.564 560.569 280.388 555.04 285.91 548.222 285.91Z" fill="#F2F2F2"/><path d="M832.218 285.91 733.439 285.91C726.62 285.91 721.087 280.388 721.087 273.564 721.087 266.746 726.615 261.217 733.439 261.217L832.218 261.217C839.037 261.217 844.566 266.746 844.566 273.564 844.566 280.388 839.037 285.91 832.218 285.91Z" fill="#F2F2F2"/><path d="M844.566 372.349C837.751 372.349 832.218 366.821 832.218 360.002L832.218 310.609C832.218 303.79 837.746 298.263 844.566 298.263 851.389 298.263 856.917 303.79 856.917 310.609L856.917 360.002C856.917 366.821 851.384 372.349 844.566 372.349Z" fill="#F2F2F2"/><path d="M844.566 495.827C837.751 495.827 832.218 490.299 832.218 483.48L832.218 434.088C832.218 427.268 837.746 421.741 844.566 421.741 851.389 421.741 856.917 427.268 856.917 434.088L856.917 483.48C856.917 490.299 851.384 495.827 844.566 495.827Z" fill="#F2F2F2"/><path d="M437.09 372.349C430.271 372.349 424.738 366.821 424.738 360.002L424.738 310.609C424.738 303.79 430.266 298.263 437.09 298.263 443.909 298.263 449.437 303.79 449.437 310.609L449.437 360.002C449.437 366.821 443.909 372.349 437.09 372.349Z" fill="#F2F2F2"/><path d="M437.09 495.827C430.271 495.827 424.738 490.299 424.738 483.48L424.738 434.088C424.738 427.268 430.266 421.741 437.09 421.741 443.909 421.741 449.437 427.268 449.437 434.088L449.437 483.48C449.437 490.299 443.909 495.827 437.09 495.827Z" fill="#F2F2F2"/><path d="M782.827 409.388 498.83 409.388C492.01 409.388 486.483 403.866 486.483 397.043 486.483 390.224 492.01 384.695 498.83 384.695L782.827 384.695C789.645 384.695 795.178 390.224 795.178 397.043 795.178 403.866 789.645 409.388 782.827 409.388Z" fill="#F2F2F2"/></g></svg>