<svg width="512" height="512" xmlns="http://www.w3.org/2000/svg" xmlns:xlink="http://www.w3.org/1999/xlink" xml:space="preserve" overflow="hidden"><g transform="translate(89 -127)"><path d="M383 255 372.61 255C399.154 225.392 396.67 179.872 367.062 153.328 337.454 126.784 291.934 129.268 265.39 158.876 240.87 186.226 240.87 227.65 265.39 255L167 255 167 175C167 170.582 163.418 167 159 167L127 167C122.582 167 119 170.582 119 175L119 255 111 255 111 143C111 138.582 107.418 135 103 135L71 135C66.582 135 63 138.582 63 143L63 255 55 255 55 199C55 194.582 51.418 191 47 191L15 191C10.582 191 7 194.582 7 199L7 255-49 255C-66.665 255.02-80.98 269.335-81 287L-81 527C-80.98 544.665-66.665 558.98-49 559L115.9 559 105.23 591 79 591C74.582 591 71 594.582 71 599L71 615-9 615C-13.418 615-17 618.582-17 623-17 627.418-13.418 631-9 631L343 631C347.418 631 351 627.418 351 623 351 618.582 347.418 615 343 615L263 615 263 599C263 594.582 259.418 591 255 591L228.77 591 218.1 559 383 559C400.665 558.98 414.98 544.665 415 527L415 287C414.98 269.335 400.665 255.02 383 255ZM327 151.58C351.553 155.163 370.837 174.447 374.42 199L327 199ZM322.31 215 374.42 215C370.023 245.593 341.658 266.828 311.065 262.431 301.783 261.097 292.986 257.451 285.48 251.83ZM263 207C263.04 179.178 283.469 155.591 311 151.58L311 203.69 274.17 240.52C266.908 230.855 262.988 219.089 263 207ZM135 183 151 183 151 335 135 335ZM111 271 119 271 119 335 111 335ZM79 151 95 151 95 335 79 335ZM55 271 63 271 63 335 55 335ZM23 207 39 207 39 335 23 335ZM247 607 247 615 87 615 87 607ZM122.1 591 132.77 559 201.23 559 211.9 591ZM399 527C398.988 535.832 391.832 542.988 383 543L-49 543C-57.832 542.988-64.988 535.832-65 527L-65 511 399 511ZM399 495-65 495-65 287C-64.988 278.168-57.832 271.012-49 271L7 271 7 335-1 335-1 287C-1 282.582-4.582 279-9 279L-41 279C-45.418 279-49 282.582-49 287L-49 343C-49 347.418-45.418 351-41 351L215 351C219.418 351 223 347.418 223 343L223 287C223 282.582 219.418 279 215 279L183 279C178.582 279 175 282.582 175 287L175 335 167 335 167 271 286.08 271C306.731 281.667 331.269 281.667 351.92 271L383 271C391.832 271.012 398.988 278.168 399 287ZM-17 295-17 335-33 335-33 295ZM191 335 191 295 207 295 207 335Z" fill="#7F7F7F"/><path d="M7 519-41 519C-45.418 519-49 522.582-49 527-49 531.418-45.418 535-41 535L7 535C11.418 535 15 531.418 15 527 15 522.582 11.418 519 7 519Z" fill="#7F7F7F"/><path d="M39 519 31 519C26.582 519 23 522.582 23 527 23 531.418 26.582 535 31 535L39 535C43.418 535 47 531.418 47 527 47 522.582 43.418 519 39 519Z" fill="#7F7F7F"/><path d="M255 335C257.122 335.003 259.158 334.16 260.657 332.657L290.313 303 359 303C363.418 303 367 299.418 367 295 367 290.582 363.418 287 359 287L287 287C284.878 287 282.843 287.843 281.343 289.343L249.343 321.343C246.219 324.467 246.219 329.532 249.343 332.657 250.843 334.157 252.878 335 255 335Z" fill="#7F7F7F"/><path d="M359 423C350.444 423.006 342.539 427.567 338.25 434.97L254.5 386.11C251.799 373.133 239.09 364.803 226.113 367.503 216.543 369.495 209.137 377.092 207.39 386.71L123.11 449.92C115.898 438.813 101.047 435.656 89.94 442.868 86.407 445.162 83.541 448.346 81.63 452.1L-1.67001 417.39C-4.763 404.495-17.723 396.549-30.617 399.642-43.512 402.734-51.458 415.694-48.366 428.589-45.273 441.484-32.313 449.43-19.418 446.337-12.59 444.7-6.82101 440.155-3.63 433.9L79.67 468.61C82.766 481.495 95.722 489.431 108.607 486.335 117.851 484.114 124.912 476.644 126.61 467.29L210.89 404.08C218.099 415.185 232.945 418.344 244.051 411.135 247.22 409.078 249.858 406.301 251.75 403.03L335.5 451.89C338.201 464.867 350.91 473.197 363.887 470.497 376.863 467.796 385.194 455.087 382.493 442.11 380.177 430.98 370.369 423.002 359 423ZM-17 423.04C-17.011 427.469-20.611 431.051-25.04 431.04-29.469 431.029-33.051 427.429-33.04 423-33.029 418.571-29.429 414.989-25 415-20.586 415.011-17.011 418.586-17 423ZM103 471C98.584 470.994 95.006 467.416 95 463L95 462.96C95.022 458.542 98.622 454.978 103.04 455 107.458 455.022 111.022 458.622 111 463.04 110.978 467.443 107.403 471 103 471ZM231 399C226.582 399 223 395.418 223 391 223 386.582 226.582 383 231 383 235.418 383 239 386.582 239 391 238.994 395.416 235.416 398.994 231 399ZM359 455C354.582 455 351 451.418 351 447 351 442.582 354.582 439 359 439 363.418 439 367 442.582 367 447 366.994 451.416 363.416 454.994 359 455Z" fill="#7F7F7F"/><path d="M295 471 239 471C234.582 471 231 474.582 231 479 231 483.418 234.582 487 239 487L295 487C299.418 487 303 483.418 303 479 303 474.582 299.418 471 295 471Z" fill="#7F7F7F"/><path d="M295 447 271 447C266.582 447 263 450.582 263 455 263 459.418 266.582 463 271 463L295 463C299.418 463 303 459.418 303 455 303 450.582 299.418 447 295 447Z" fill="#7F7F7F"/><path d="M-41 375 47 375C51.418 375 55 371.418 55 367 55 362.582 51.418 359 47 359L-41 359C-45.418 359-49 362.582-49 367-49 371.418-45.418 375-41 375Z" fill="#7F7F7F"/><path d="M71 375 79 375C83.418 375 87 371.418 87 367 87 362.582 83.418 359 79 359L71 359C66.582 359 63 362.582 63 367 63 371.418 66.582 375 71 375Z" fill="#7F7F7F"/></g></svg>