<svg width="1149" height="1098" xmlns="http://www.w3.org/2000/svg" xmlns:xlink="http://www.w3.org/1999/xlink" xml:space="preserve" overflow="hidden"><defs><clipPath id="clip0"><rect x="0" y="140" width="1149" height="1098"/></clipPath></defs><g clip-path="url(#clip0)" transform="matrix(1 0 0 1 0 -140)"><path d="M630.831 158.768C615.087 146.962 596.044 140.397 576.373 140L572.908 140C553.143 140.294 533.985 146.845 518.175 158.713L34.8799 521.465C-3.61158 550.311-11.4429 604.919 17.3876 643.429 33.8422 665.411 59.6899 678.339 87.137 678.322L121.957 678.322 121.957 1065.07C121.957 1160.58 199.337 1238 294.79 1238L854.216 1238C949.67 1238 1027.05 1160.58 1027.05 1065.07L1027.05 678.322 1061.87 678.322C1109.96 678.356 1148.97 639.373 1149 591.253 1149.02 563.789 1136.1 537.927 1114.13 521.465ZM681.327 1171.95 467.679 1171.95 467.679 855.159C467.618 834.822 484.043 818.289 504.368 818.228 504.44 818.228 504.517 818.228 504.589 818.228L644.417 818.228C664.742 818.168 681.267 834.602 681.327 854.938 681.327 855.01 681.327 855.087 681.327 855.159ZM1081.89 597.858C1079.01 606.471 1070.94 612.277 1061.87 612.277L994.044 612.277C975.815 612.277 961.04 627.061 961.04 645.3L961.04 1065.07C961.04 1124.1 913.211 1171.95 854.216 1171.95L747.336 1171.95 747.336 855.159C747.336 798.288 701.257 752.183 644.417 752.183L504.589 752.183C447.749 752.183 401.67 798.288 401.67 855.159L401.67 1171.95 294.79 1171.95C235.792 1171.95 187.966 1124.1 187.966 1065.07L187.966 645.3C187.966 627.061 173.189 612.277 154.961 612.277L87.137 612.277C75.502 612.311 66.0446 602.893 66.0143 591.253 65.9966 584.577 69.1386 578.292 74.4853 574.302L558.001 211.549C562.775 208.008 568.557 206.08 574.503 206.045L575.713 206.045C581.324 206.253 586.737 208.173 591.225 211.549L1074.52 574.247C1081.8 579.706 1084.77 589.222 1081.89 597.858Z" fill="#F2F2F2" fill-rule="evenodd"/></g></svg>