<svg width="64" height="64" xmlns="http://www.w3.org/2000/svg" xmlns:xlink="http://www.w3.org/1999/xlink" xml:space="preserve" overflow="hidden"><g transform="translate(-500 -337)"><path d="M559 346.908 554.286 346.908 554.286 344.122C554.286 343.57 553.838 343.122 553.286 343.122L537.494 343.122C536.357 343.126 535.277 343.62 534.532 344.479 533.788 343.62 532.708 343.126 531.571 343.122L515.786 343.122C515.234 343.122 514.786 343.57 514.786 344.122L514.786 346.908 510.06 346.908C509.508 346.908 509.06 347.356 509.06 347.908L509.06 361.126 505.008 361.091C504.454 361.09 504.004 361.537 504 362.091L504 367.998C504 368.55 504.448 368.998 505 368.998L509.06 368.998 509.06 393.878C509.06 394.43 509.508 394.878 510.06 394.878L559 394.878C559.552 394.878 560 394.43 560 393.878L560 347.908C560 347.356 559.552 346.908 559 346.908ZM537.494 345.122 552.286 345.122 552.286 388.967 537.494 388.967C536.645 388.964 535.894 388.414 535.636 387.605 535.614 387.57 535.717 381.52 535.532 381.768L535.532 347.083C535.534 346 536.411 345.123 537.494 345.122ZM531.571 345.122C532.654 345.123 533.531 346.001 533.532 347.083L533.532 387.006C533.531 388.089 532.654 388.966 531.571 388.967L516.786 388.967 516.786 347.93C516.79 347.916 516.79 347.901 516.786 347.887L516.786 345.122ZM506 366.998 506 363.1 509.06 363.126 509.06 366.998ZM511.06 368.022C511.059 364.145 511.061 352.939 511.06 348.908L514.786 348.908 514.786 389.967C514.786 390.52 515.234 390.967 515.786 390.967L531.571 390.967C532.302 390.965 533.017 390.758 533.636 390.371L533.636 392.878 511.06 392.878ZM558 392.878 535.636 392.878 535.636 390.483C536.205 390.796 536.844 390.963 537.494 390.967L553.286 390.967C553.838 390.967 554.286 390.52 554.286 389.967L554.286 348.908 558 348.908Z" fill="#7F7F7F"/><path d="M539.071 357.443 548.748 357.443C549.3 357.443 549.748 356.996 549.748 356.443L549.748 351.067C549.748 350.515 549.3 350.067 548.748 350.067L539.071 350.067C538.519 350.067 538.071 350.515 538.071 351.067L538.071 356.443C538.071 356.996 538.519 357.443 539.071 357.443ZM540.071 352.067 547.748 352.067 547.748 355.443 540.071 355.443Z" fill="#7F7F7F"/><path d="M539.071 370.733 548.748 370.733C549.3 370.733 549.748 370.285 549.748 369.733L549.748 364.357C549.748 363.805 549.3 363.357 548.748 363.357L539.071 363.357C538.519 363.357 538.071 363.805 538.071 364.357L538.071 369.733C538.071 370.285 538.519 370.733 539.071 370.733ZM540.071 365.357 547.748 365.357 547.748 368.733 540.071 368.733Z" fill="#7F7F7F"/><path d="M539.071 384.022 548.748 384.022C549.3 384.022 549.748 383.575 549.748 383.022L549.748 377.646C549.748 377.094 549.3 376.646 548.748 376.646L539.071 376.646C538.519 376.646 538.071 377.094 538.071 377.646L538.071 383.022C538.071 383.575 538.519 384.022 539.071 384.022ZM540.071 378.646 547.748 378.646 547.748 382.022 540.071 382.022Z" fill="#7F7F7F"/><path d="M520.321 357.443 529.998 357.443C530.55 357.443 530.998 356.996 530.998 356.443L530.998 351.067C530.998 350.515 530.55 350.067 529.998 350.067L520.321 350.067C519.769 350.067 519.321 350.515 519.321 351.067L519.321 356.443C519.321 356.996 519.769 357.443 520.321 357.443ZM521.321 352.067 528.998 352.067 528.998 355.443 521.321 355.443Z" fill="#7F7F7F"/><path d="M520.321 370.733 529.998 370.733C530.55 370.733 530.998 370.285 530.998 369.733L530.998 364.357C530.998 363.805 530.55 363.357 529.998 363.357L520.321 363.357C519.769 363.357 519.321 363.805 519.321 364.357L519.321 369.733C519.321 370.285 519.769 370.733 520.321 370.733ZM521.321 365.357 528.998 365.357 528.998 368.733 521.321 368.733Z" fill="#7F7F7F"/><path d="M520.321 384.022 529.998 384.022C530.55 384.022 530.998 383.575 530.998 383.022L530.998 377.646C530.998 377.094 530.55 376.646 529.998 376.646L520.321 376.646C519.769 376.646 519.321 377.094 519.321 377.646L519.321 383.022C519.321 383.575 519.769 384.022 520.321 384.022ZM521.321 378.646 528.998 378.646 528.998 382.022 521.321 382.022Z" fill="#7F7F7F"/></g></svg>