<svg width="512" height="512" xmlns="http://www.w3.org/2000/svg" xmlns:xlink="http://www.w3.org/1999/xlink" xml:space="preserve" overflow="hidden"><g transform="translate(75 -84)"><path d="M173 165.883C173 161.465 176.582 157.883 181 157.883L355.117 157.883C359.535 157.883 363.117 161.465 363.117 165.883L363.117 249.834 369.179 239.336C371.387 235.509 376.281 234.198 380.107 236.408 383.933 238.617 385.245 243.51 383.035 247.336L362.046 283.69C360.617 286.165 357.977 287.69 355.118 287.69 352.259 287.69 349.619 286.165 348.19 283.69L327.2 247.335C324.99 243.509 326.302 238.616 330.128 236.407 333.956 234.198 338.848 235.511 341.056 239.335L347.118 249.833 347.118 173.883 181 173.883C176.582 173.883 173 170.301 173 165.883ZM19.759 189.036 19.759 218.355C19.759 224.42 14.824 229.355 8.759 229.355L-20.56 229.355C-26.625 229.355-31.56 224.42-31.56 218.355L-31.56 189.036C-31.56 182.971-26.625 178.036-20.56 178.036L8.758 178.036C14.824 178.036 19.759 182.97 19.759 189.036ZM3.759 194.036-15.56 194.036-15.56 213.355 3.758 213.355 3.758 194.036ZM19.759 269.039 19.759 298.358C19.759 304.423 14.824 309.358 8.759 309.358L-20.56 309.358C-26.625 309.358-31.56 304.423-31.56 298.358L-31.56 269.039C-31.56 262.974-26.625 258.039-20.56 258.039L8.758 258.039C14.824 258.039 19.759 262.973 19.759 269.039ZM3.759 274.039-15.56 274.039-15.56 293.357 3.758 293.357 3.758 274.039ZM35.717 221.695 107.233 221.695C111.651 221.695 115.233 218.113 115.233 213.695 115.233 209.277 111.651 205.695 107.233 205.695L35.717 205.695C31.299 205.695 27.717 209.277 27.717 213.695 27.717 218.113 31.299 221.695 35.717 221.695ZM35.717 201.695 107.233 201.695C111.651 201.695 115.233 198.113 115.233 193.695 115.233 189.277 111.651 185.695 107.233 185.695L35.717 185.695C31.299 185.695 27.717 189.277 27.717 193.695 27.717 198.113 31.299 201.695 35.717 201.695ZM429 356.881 429 568.499C429 579.252 420.252 588 409.499 588L232.384 588C221.631 588 212.883 579.252 212.883 568.499L212.883 443.185C202.802 446.306 192.094 447.99 181.001 447.99 129.888 447.99 86.956 412.295 75.821 364.523L-47.499 364.523C-58.252 364.523-67 355.775-67 345.022L-67 133.404C-67 122.651-58.252 113.903-47.499 113.903L-11.143 113.903C-10.628 109.981-7.281 106.951-3.22 106.951L16.54 106.951C21.164 97.908 30.511 92 41.059 92 51.607 92 60.954 97.908 65.578 106.951L85.338 106.951C89.4 106.951 92.747 109.981 93.261 113.903L129.617 113.903C140.37 113.903 149.118 122.651 149.118 133.404L149.118 236.816C159.2 233.694 169.908 232.011 181.002 232.011 237.322 232.011 283.702 275.35 288.563 330.429L296.424 330.429C301.048 321.386 310.395 315.478 320.943 315.478 331.491 315.478 340.838 321.386 345.462 330.429L365.222 330.429C369.284 330.429 372.631 333.459 373.145 337.381L409.501 337.381C420.252 337.38 429 346.128 429 356.881ZM288.794 346.428C288.515 351.149 287.932 355.79 287.063 360.33L357.219 360.33 357.219 346.428 339.947 346.428C336.252 346.428 333.037 343.897 332.17 340.304 330.917 335.107 326.299 331.477 320.941 331.477 315.583 331.477 310.965 335.107 309.712 340.304 308.845 343.897 305.63 346.428 301.935 346.428ZM264.323 436.832 283.641 436.832 283.641 417.513 264.323 417.513ZM4.78 122.951 4.78 136.854 77.337 136.854 77.337 122.951 60.065 122.951C56.37 122.951 53.155 120.42 52.288 116.827 51.034 111.63 46.416 108 41.059 108 35.702 108 31.083 111.63 29.83 116.827 28.963 120.42 25.748 122.951 22.053 122.951ZM73.346 348.523C73.126 345.71 73.011 342.868 73.011 340 73.011 326.518 75.502 313.609 80.035 301.698L35.717 301.698C31.299 301.698 27.717 298.116 27.717 293.698 27.717 289.28 31.299 285.698 35.717 285.698L87.689 285.698C88.479 284.346 89.293 283.011 90.139 281.698L35.717 281.698C31.299 281.698 27.717 278.116 27.717 273.698 27.717 269.28 31.299 265.698 35.717 265.698L102.567 265.698C102.613 265.698 102.657 265.704 102.703 265.705 111.402 256.542 121.69 248.904 133.118 243.227L133.118 133.404C133.118 131.473 131.548 129.903 129.617 129.903L93.338 129.903 93.338 144.854C93.338 149.272 89.756 152.854 85.338 152.854L-3.22 152.854C-7.638 152.854-11.22 149.272-11.22 144.854L-11.22 129.903-47.499 129.903C-49.43 129.903-51 131.473-51 133.404L-51 345.022C-51 346.953-49.43 348.523-47.499 348.523ZM181.001 431.99C231.725 431.99 272.991 390.723 272.991 340 272.991 289.277 231.724 248.01 181.001 248.01 130.278 248.01 89.011 289.277 89.011 340 89.011 390.723 130.277 431.99 181.001 431.99ZM413 356.881C413 354.95 411.43 353.38 409.499 353.38L373.22 353.38 373.22 368.331C373.22 372.749 369.638 376.331 365.22 376.331L282.697 376.331C279.47 385.336 275.08 393.789 269.708 401.513L288.643 401.513C294.708 401.513 299.643 406.448 299.643 412.513L299.643 441.832C299.643 447.897 294.708 452.832 288.643 452.832L259.325 452.832C253.26 452.832 248.325 447.897 248.325 441.832L248.325 424.371C242.331 429.163 235.818 433.33 228.885 436.775L228.885 568.499C228.885 570.43 230.455 572 232.386 572L409.501 572C411.432 572 413.002 570.43 413.002 568.499L413.002 356.881ZM299.642 492.516 299.642 521.835C299.642 527.9 294.707 532.835 288.642 532.835L259.324 532.835C253.259 532.835 248.324 527.9 248.324 521.835L248.324 492.516C248.324 486.451 253.259 481.516 259.324 481.516L288.642 481.516C294.707 481.516 299.642 486.45 299.642 492.516ZM283.642 497.516 264.324 497.516 264.324 516.834 283.642 516.834ZM387.115 429.172 315.6 429.172C311.182 429.172 307.6 432.754 307.6 437.172 307.6 441.59 311.182 445.172 315.6 445.172L387.115 445.172C391.533 445.172 395.115 441.59 395.115 437.172 395.115 432.754 391.533 429.172 387.115 429.172ZM387.115 409.172 315.6 409.172C311.182 409.172 307.6 412.754 307.6 417.172 307.6 421.59 311.182 425.172 315.6 425.172L387.115 425.172C391.533 425.172 395.115 421.59 395.115 417.172 395.115 412.754 391.533 409.172 387.115 409.172ZM387.115 489.174 315.6 489.174C311.182 489.174 307.6 492.756 307.6 497.174 307.6 501.592 311.182 505.174 315.6 505.174L387.115 505.174C391.533 505.174 395.115 501.592 395.115 497.174 395.115 492.756 391.533 489.174 387.115 489.174ZM387.115 509.175 315.6 509.175C311.182 509.175 307.6 512.757 307.6 517.175 307.6 521.593 311.182 525.175 315.6 525.175L387.115 525.175C391.533 525.175 395.115 521.593 395.115 517.175 395.115 512.757 391.533 509.175 387.115 509.175ZM214.057 277.39C222.887 286.221 227.75 297.96 227.75 310.446 227.75 319.325 225.236 327.979 220.479 335.472 215.718 342.973 208.945 348.942 200.892 352.731 200.484 352.923 200.342 353.111 200.309 353.165 200.309 353.165 200.19 353.361 200.19 353.866L200.19 359.391C200.19 368.761 193.441 376.584 184.547 378.253 193.441 379.922 200.19 387.745 200.19 397.115 200.19 407.697 191.582 416.305 181 416.305 170.418 416.305 161.81 407.696 161.81 397.115 161.81 387.745 168.559 379.922 177.453 378.253 168.559 376.585 161.81 368.761 161.81 359.391L161.81 353.866C161.81 346.259 163.922 338.909 167.919 332.612 171.898 326.34 177.649 321.307 184.551 318.06 185.992 317.381 187.216 316.295 188.089 314.92 188.927 313.601 189.369 312.053 189.369 310.446 189.369 308.21 188.499 306.108 186.919 304.528 185.338 302.947 183.236 302.077 181 302.077 178.764 302.077 176.662 302.948 175.081 304.528 173.502 306.107 172.632 308.209 172.632 310.445 172.632 321.027 164.024 329.635 153.442 329.635 142.86 329.635 134.252 321.026 134.252 310.445 134.252 297.96 139.114 286.22 147.944 277.39 156.776 268.559 168.515 263.696 181.001 263.696 193.486 263.696 205.226 268.559 214.057 277.39ZM184.19 397.114C184.19 395.355 182.758 393.924 181 393.924 179.242 393.924 177.81 395.355 177.81 397.114 177.81 398.873 179.242 400.304 181 400.304 182.758 400.304 184.19 398.873 184.19 397.114ZM211.75 310.445C211.75 302.233 208.551 294.511 202.742 288.703 196.933 282.895 189.212 279.696 181 279.696 172.788 279.696 165.066 282.895 159.257 288.704 153.449 294.512 150.251 302.234 150.251 310.446 150.251 312.205 151.683 313.636 153.441 313.636 155.199 313.636 156.631 312.205 156.631 310.446 156.631 303.936 159.165 297.817 163.767 293.215 168.371 288.612 174.491 286.078 180.999 286.078 187.509 286.078 193.629 288.613 198.231 293.215 202.833 297.817 205.368 303.936 205.368 310.447 205.368 315.096 204.063 319.608 201.596 323.495 199.094 327.437 195.556 330.563 191.364 332.537 187.215 334.49 183.779 337.48 181.427 341.185 179.06 344.915 177.809 349.3 177.809 353.866L177.809 359.391C177.809 361.15 179.241 362.582 180.999 362.582 182.757 362.582 184.189 361.15 184.189 359.391L184.189 353.866C184.189 350.491 185.091 347.284 186.798 344.593 188.524 341.875 191.04 339.685 194.078 338.255 199.38 335.76 203.837 331.833 206.969 326.898 210.098 321.972 211.75 316.283 211.75 310.445ZM181 506.117 14.883 506.117 14.883 430.166 20.945 440.664C23.153 444.489 28.045 445.801 31.873 443.592 35.699 441.383 37.011 436.49 34.801 432.664L13.812 396.31C12.383 393.835 9.743 392.31 6.884 392.31 4.025 392.31 1.385 393.835-0.0439987 396.31L-21.033 432.664C-23.243 436.49-21.931 441.383-18.105 443.592-14.281 445.801-9.386 444.49-7.177 440.664L-1.115 430.166-1.115 514.117C-1.115 518.535 2.467 522.117 6.885 522.117L181 522.117C185.418 522.117 189 518.535 189 514.117 189 509.699 185.418 506.117 181 506.117Z" fill="#F2F2F2"/></g></svg>