<svg id="Layer_1" viewBox="0 0 128 128" xmlns="http://www.w3.org/2000/svg" data-name="Layer 1"><path d="m4.11634 43.98754h90.747a2.26865 2.26865 0 0 1 2.26866 2.26865v22.37472a2.26871 2.26871 0 0 1 -2.26871 2.26871h-90.74695a2.26871 2.26871 0 0 1 -2.26871-2.26871v-22.37467a2.26871 2.26871 0 0 1 2.26871-2.2687z" fill="#3b4551"/><g fill-rule="evenodd"><path d="m123.88366 86.0515h-90.747a2.26869 2.26869 0 0 0 -2.2687 2.2687v28.4265a2.26867 2.26867 0 0 0 2.2687 2.26865h90.747a2.26868 2.26868 0 0 0 2.26871-2.26865v-28.4265a2.26869 2.26869 0 0 0 -2.26871-2.2687zm-4.53736 23.0214a3.1364 3.1364 0 0 1 -3.13638 3.13645h-25.863a3.13645 3.13645 0 0 1 -3.13645-3.13645v-.00006a3.13645 3.13645 0 0 1 3.13645-3.13644h25.863a3.1364 3.1364 0 0 1 3.13638 3.13644zm0-13.0789a3.13639 3.13639 0 0 1 -3.13638 3.13639h-25.863a3.13644 3.13644 0 0 1 -3.13643-3.13639 3.13644 3.13644 0 0 1 3.13645-3.13639h25.863a3.13639 3.13639 0 0 1 3.13636 3.13639z" fill="#2b79c2"/><path d="m4.11634 28.8356h90.747a2.26867 2.26867 0 0 0 2.26866-2.2686v-3.1195h6.05351a6.806 6.806 0 0 1 6.80606 6.806v25.1083h-5.95975a1.13435 1.13435 0 0 0 -.88963 1.83808l10.49664 13.2691a1.13434 1.13434 0 0 0 1.7796-.00034l10.48737-13.26922a1.13431 1.13431 0 0 0 -.88991-1.83767h-5.94964v-25.1083a15.88068 15.88068 0 0 0 -15.88071-15.88071h-6.05354v-3.11944a2.26866 2.26866 0 0 0 -2.26865-2.26865h-90.74701a2.26867 2.26867 0 0 0 -2.26865 2.26865v15.3137a2.26868 2.26868 0 0 0 2.26865 2.2686z" fill="#3b4551"/></g></svg>