<svg width="100" height="100" xmlns="http://www.w3.org/2000/svg" xmlns:xlink="http://www.w3.org/1999/xlink" xml:space="preserve" overflow="hidden"><g transform="translate(-63 -102)"><path d="M149 175.2 149 165C149 163.9 148.1 163 147 163L115 163 115 154 131.2 142.6C131.2 142.6 131.3 142.5 131.3 142.5 131.4 142.4 131.4 142.4 131.5 142.3 131.5 142.3 131.6 142.2 131.6 142.2 131.6 142.1 131.7 142.1 131.7 142 131.7 141.9 131.8 141.9 131.8 141.8 131.8 141.7 131.9 141.7 131.9 141.6 131.9 141.5 131.9 141.5 132 141.4 132 141.3 132 141.3 132.1 141.2 132.1 141.1 132.1 141.1 132.1 141L132.1 140.9 132.1 121C132.1 120.8 132.1 120.7 132 120.6L132 120.5C132 120.4 131.9 120.3 131.9 120.2 131.9 120.2 131.9 120.1 131.8 120.1 131.8 120 131.7 119.9 131.6 119.9 131.6 119.9 131.5 119.8 131.5 119.8 131.4 119.7 131.3 119.6 131.2 119.6 131.2 119.6 131.2 119.6 131.1 119.5L114.1 107.5C113.4 107 112.5 107 111.8 107.5L94.8 119.5C94.8 119.5 94.8 119.5 94.7 119.6 94.6 119.7 94.5 119.7 94.4 119.8 94.4 119.8 94.3 119.9 94.3 119.9 94.2 120 94.2 120.1 94.1 120.1 94.1 120.1 94.1 120.2 94 120.2 94 120.3 93.9 120.4 93.9 120.5L93.9 120.6C93.9 120.7 93.8 120.9 93.8 121L93.8 141 93.8 141.1 93.8 141.3C93.8 141.4 93.8 141.4 93.9 141.5 93.9 141.6 93.9 141.6 94 141.7 94 141.8 94.1 141.8 94.1 141.9 94.1 142 94.2 142 94.2 142.1 94.2 142.2 94.3 142.2 94.3 142.3 94.3 142.3 94.4 142.4 94.4 142.4 94.5 142.5 94.5 142.5 94.6 142.6 94.6 142.6 94.7 142.7 94.7 142.7L111 154 111 163 79 163C77.9 163 77 163.9 77 165L77 175.2C71.9 176.1 68 180.6 68 186 68 192.1 72.9 197 79 197 85.1 197 90 192.1 90 186 90 180.6 86.1 176.1 81 175.2L81 167 111 167 111 175.2C105.9 176.1 102 180.6 102 186 102 192.1 106.9 197 113 197 119.1 197 124 192.1 124 186 124 180.6 120.1 176.1 115 175.2L115 167 145 167 145 175.2C139.9 176.1 136 180.6 136 186 136 192.1 140.9 197 147 197 153.1 197 158 192.1 158 186 158 180.6 154.1 176.1 149 175.2ZM115 134 128 124.8 128 140 115 149.2ZM113 111.4 126.5 121 113 130.6 99.5 121ZM98 140 98 124.9 111 134 111 149.1ZM86 186C86 189.9 82.9 193 79 193 75.1 193 72 189.9 72 186 72 182.1 75.1 179 79 179 82.9 179 86 182.1 86 186ZM120 186C120 189.9 116.9 193 113 193 109.1 193 106 189.9 106 186 106 182.1 109.1 179 113 179 116.9 179 120 182.1 120 186ZM147 193C143.1 193 140 189.9 140 186 140 182.1 143.1 179 147 179 150.9 179 154 182.1 154 186 154 189.9 150.9 193 147 193Z" fill="#A6A6A6"/></g></svg>