<svg width="512" height="512" xmlns="http://www.w3.org/2000/svg" xmlns:xlink="http://www.w3.org/1999/xlink" xml:space="preserve" overflow="hidden"><defs><clipPath id="clip0"><rect x="384" y="104" width="512" height="512"/></clipPath></defs><g clip-path="url(#clip0)" transform="translate(-384 -104)"><path d="M630.525 421.326C630.525 403.965 616.393 389.84 599.022 389.84 591.233 389.84 584.099 392.681 578.592 397.372L538.024 372.946C538.515 370.743 538.782 368.457 538.782 366.108 538.782 348.747 524.636 334.622 507.25 334.622 489.879 334.622 475.747 348.747 475.747 366.108 475.747 368.457 476.014 370.743 476.504 372.946L435.936 397.372C430.428 392.681 423.295 389.84 415.506 389.84 398.132 389.84 384 403.965 384 421.326 384 435.194 393.021 446.988 405.503 451.177L405.503 499.417C393.021 503.605 384 515.399 384 529.268 384 546.645 398.132 560.783 415.503 560.783 423.291 560.783 430.424 557.94 435.931 553.246L476.5 577.652C476.01 579.854 475.744 582.139 475.744 584.486 475.744 601.863 489.876 616.001 507.247 616.001 524.634 616.001 538.779 601.864 538.779 584.486 538.779 582.139 538.512 579.854 538.022 577.652L578.592 553.246C584.099 557.94 591.232 560.783 599.02 560.783 616.391 560.783 630.523 546.646 630.523 529.268 630.523 515.4 621.502 503.606 609.02 499.417L609.02 451.177C621.504 446.989 630.525 435.195 630.525 421.326ZM599.021 409.84C605.364 409.84 610.524 414.992 610.524 421.326 610.524 427.66 605.363 432.812 599.021 432.812 592.662 432.812 587.489 427.659 587.489 421.326 587.489 414.993 592.663 409.84 599.021 409.84ZM507.248 354.623C513.607 354.623 518.78 359.775 518.78 366.109 518.78 372.443 513.607 377.595 507.248 377.595 500.905 377.595 495.745 372.442 495.745 366.109 495.745 359.776 500.905 354.623 507.248 354.623ZM446.278 414.489 486.84 390.067C492.342 394.756 499.467 397.595 507.248 397.595 515.037 397.595 522.171 394.754 527.678 390.063L568.246 414.489C567.755 416.692 567.488 418.978 567.488 421.326 567.488 423.674 567.755 425.961 568.246 428.164L527.678 452.59C522.17 447.899 515.037 445.058 507.248 445.058 499.468 445.058 492.342 447.897 486.84 452.586L446.278 428.164C446.769 425.961 447.036 423.675 447.036 421.326 447.036 418.978 446.769 416.692 446.278 414.489ZM518.78 476.545C518.78 482.878 513.607 488.031 507.248 488.031 500.905 488.031 495.745 482.879 495.745 476.545 495.745 470.211 500.906 465.059 507.248 465.059 513.607 465.058 518.78 470.211 518.78 476.545ZM404 421.326C404 414.993 409.161 409.84 415.503 409.84 421.862 409.84 427.035 414.992 427.035 421.326 427.035 427.66 421.862 432.812 415.503 432.812 409.161 432.813 404 427.66 404 421.326ZM415.503 540.782C409.16 540.782 404 535.616 404 529.267 404 522.934 409.161 517.781 415.503 517.781 421.862 517.781 427.035 522.934 427.035 529.267 427.036 535.617 421.862 540.782 415.503 540.782ZM446.274 536.128C446.767 533.918 447.035 531.624 447.035 529.268 447.035 515.396 438.001 503.6 425.503 499.414L425.503 451.18C429.367 449.886 432.897 447.867 435.933 445.281L476.501 469.707C476.011 471.91 475.744 474.196 475.744 476.545 475.744 490.413 484.765 502.207 497.247 506.395L497.247 554.635C493.391 555.929 489.867 557.947 486.836 560.53ZM507.248 596C500.905 596 495.745 590.834 495.745 584.485 495.745 578.152 500.906 572.999 507.248 572.999 513.607 572.999 518.78 578.152 518.78 584.485 518.78 590.835 513.607 596 507.248 596ZM527.681 560.533C524.644 557.946 521.112 555.925 517.248 554.631L517.248 506.397C529.746 502.211 538.78 490.415 538.78 476.544 538.78 474.196 538.513 471.909 538.022 469.706L578.59 445.28C581.626 447.866 585.157 449.885 589.02 451.179L589.02 499.413C576.522 503.599 567.488 515.395 567.488 529.267 567.488 531.623 567.756 533.917 568.249 536.127ZM599.021 540.782C592.662 540.782 587.489 535.616 587.489 529.267 587.489 522.934 592.662 517.781 599.021 517.781 605.364 517.781 610.524 522.934 610.524 529.267 610.525 535.617 605.364 540.782 599.021 540.782Z" fill="#A6A6A6"/><path d="M699.156 314.844C702.642 318.358 707.297 320.299 712.261 320.309L712.302 320.309C717.265 320.309 721.928 318.38 725.437 314.874L742.401 297.924C749.614 290.717 749.628 278.954 742.401 271.673L741.488 270.761C744.477 265.119 746.927 259.221 748.819 253.116L750.113 253.116C760.351 253.116 768.68 244.79 768.68 234.555L768.68 210.575C768.68 200.341 760.351 192.014 750.113 192.014L748.819 192.014C746.928 185.909 744.478 180.011 741.488 174.369L742.401 173.457C745.897 169.964 747.822 165.302 747.822 160.331 747.822 155.36 745.897 150.698 742.401 147.205L725.437 130.254C721.928 126.749 717.265 124.819 712.302 124.819 712.288 124.819 712.275 124.819 712.261 124.819 707.297 124.829 702.643 126.77 699.201 130.238L698.275 131.158C692.602 128.158 686.693 125.708 680.594 123.829L680.594 122.558C680.596 112.326 672.254 104 662 104L638.028 104C627.774 104 619.432 112.326 619.432 122.561L619.432 123.832C613.339 125.709 607.434 128.156 601.766 131.152L600.869 130.256C593.625 123.017 581.836 123.016 574.591 130.256L557.625 147.208C554.13 150.701 552.205 155.363 552.205 160.333 552.205 165.304 554.13 169.965 557.626 173.459L558.539 174.371C555.55 180.013 553.099 185.912 551.208 192.016L549.914 192.016C539.676 192.016 531.347 200.342 531.347 210.577L531.347 234.557C531.347 244.791 539.676 253.118 549.914 253.118L551.208 253.118C553.099 259.222 555.549 265.121 558.539 270.763L557.596 271.706C550.401 278.957 550.414 290.72 557.627 297.927L574.591 314.877C581.836 322.118 593.626 322.116 600.869 314.877L601.766 313.98C607.435 316.977 613.34 319.424 619.432 321.301L619.432 322.572C619.432 332.806 627.774 341.133 638.028 341.133L662 341.133C672.254 341.133 680.596 332.807 680.596 322.572L680.596 321.301C686.694 319.422 692.605 316.972 698.278 313.972ZM668.42 303.852C663.848 304.871 660.596 308.928 660.596 313.612L660.596 321.13 639.433 321.13 639.433 313.612C639.433 308.927 636.181 304.871 631.609 303.852 622.37 301.792 613.576 298.15 605.471 293.027 601.519 290.53 596.366 291.102 593.06 294.406L587.731 299.731 572.787 284.799 578.119 279.472C581.433 276.16 582.004 270.991 579.493 267.036 574.39 259.002 570.737 250.213 568.635 240.912 567.605 236.353 563.555 233.116 558.881 233.116L551.349 233.116 551.349 212.014 558.881 212.014C563.555 212.014 567.605 208.777 568.635 204.218 570.737 194.918 574.39 186.128 579.493 178.094 582.005 174.139 581.434 168.97 578.119 165.658L572.787 160.33 587.732 145.398 593.061 150.723C596.367 154.027 601.522 154.601 605.473 152.102 613.577 146.979 622.371 143.338 631.611 141.277 636.183 140.257 639.435 136.201 639.435 131.517L639.435 124 660.598 124 660.598 131.518C660.598 136.203 663.85 140.259 668.422 141.278 677.662 143.338 686.455 146.98 694.559 152.103 698.503 154.596 703.647 154.032 706.955 150.74L712.311 145.411 727.244 160.331 721.912 165.659C718.598 168.971 718.027 174.139 720.539 178.094 725.642 186.127 729.295 194.917 731.397 204.219 732.427 208.777 736.478 212.014 741.151 212.014L748.682 212.014 748.682 233.116 741.151 233.116C736.478 233.116 732.427 236.353 731.397 240.911 729.294 250.214 725.641 259.003 720.539 267.036 718.027 270.991 718.598 276.16 721.912 279.471L727.244 284.799 712.311 299.719 706.954 294.39C703.647 291.099 698.503 290.536 694.559 293.027 686.452 298.151 677.658 301.792 668.42 303.852Z" fill="#A6A6A6"/><path d="M889.681 413.411 797.937 358.193C794.766 356.283 790.798 356.283 787.625 358.192L695.852 413.41C692.884 415.196 691.007 418.513 691.007 421.978L691.007 529.947C691.007 533.455 692.846 536.707 695.852 538.516L787.625 593.733C790.755 595.616 794.807 595.618 797.937 593.733L889.681 538.515C892.687 536.706 894.525 533.455 894.525 529.947L894.525 421.979C894.525 421.59 894.493 421.192 894.447 420.807 894.087 417.764 892.309 414.993 889.681 413.411ZM782.78 567.479 711.007 524.294 711.007 439.666 782.78 482.85ZM792.779 465.526 720.403 421.979 792.779 378.432 865.132 421.979ZM874.524 524.295 802.78 567.475 802.78 482.849 874.524 439.669Z" fill="#A6A6A6"/><path d="M650.028 157.999C615.169 157.999 586.808 186.34 586.808 221.176 586.808 256.012 615.168 284.353 650.028 284.353 684.872 284.353 713.219 256.012 713.219 221.176 713.219 186.34 684.872 157.999 650.028 157.999ZM650.028 264.353C626.196 264.353 606.808 244.984 606.808 221.176 606.808 197.368 626.196 177.999 650.028 177.999 673.843 177.999 693.219 197.368 693.219 221.176 693.22 244.984 673.844 264.353 650.028 264.353Z" fill="#A6A6A6"/><path d="M844.549 347.217 810.138 312.834C806.232 308.931 806.229 302.599 810.132 298.692 814.036 294.786 820.368 294.782 824.275 298.687L841.618 316.016 841.618 202.575 798.71 202.575C793.188 202.575 788.71 198.098 788.71 192.575 788.71 187.052 793.188 182.575 798.71 182.575L851.618 182.575C857.14 182.575 861.618 187.052 861.618 192.575L861.618 316.002 878.93 298.69C882.836 294.785 889.166 294.784 893.073 298.69 896.978 302.595 896.978 308.927 893.073 312.832L858.69 347.215C858.141 347.751 855.732 349.983 851.945 350.105 847.744 350.239 845.023 347.679 844.549 347.217Z" fill="#A6A6A6"/><path d="M427.191 231.431C432.714 231.431 437.191 226.954 437.191 221.431L437.191 202.575 477.163 202.575 459.867 219.857C455.96 223.76 455.958 230.092 459.862 233.999 461.815 235.954 464.375 236.931 466.936 236.931 469.494 236.931 472.052 235.955 474.004 234.005L508.387 199.65C512.236 195.801 512.243 189.358 508.39 185.505L474.007 151.12C470.102 147.215 463.77 147.215 459.864 151.12 455.959 155.025 455.959 161.357 459.864 165.263L477.176 182.575 427.191 182.575C421.668 182.575 417.191 187.052 417.191 192.575L417.191 221.431C417.191 226.954 421.668 231.431 427.191 231.431Z" fill="#A6A6A6"/><path d="M427.191 350.087C432.714 350.087 437.191 345.61 437.191 340.087L437.191 311.288C437.191 305.765 432.714 301.288 427.191 301.288 421.668 301.288 417.191 305.765 417.191 311.288L417.191 340.087C417.191 345.61 421.668 350.087 427.191 350.087Z" fill="#A6A6A6"/><path d="M427.191 276.359C432.714 276.359 437.191 271.854 437.191 266.331 437.191 260.808 432.714 256.331 427.191 256.331 421.668 256.331 417.191 260.808 417.191 266.331L417.191 266.388C417.191 271.911 421.668 276.359 427.191 276.359Z" fill="#A6A6A6"/></g></svg>