<svg width="512" height="512" xmlns="http://www.w3.org/2000/svg" xmlns:xlink="http://www.w3.org/1999/xlink" xml:space="preserve" overflow="hidden"><g transform="translate(-42 -73)"><path d="M390.7 175.72C390.7 172.41 393.39 169.72 396.7 169.72L435.44 169.72 435.44 118.45C435.44 115.14 438.13 112.45 441.44 112.45 444.75 112.45 447.44 115.14 447.44 118.45L447.44 175.72C447.44 179.03 444.75 181.72 441.44 181.72L396.7 181.72C393.39 181.72 390.7 179.03 390.7 175.72ZM384.05 438.38C384.05 441.69 386.74 444.38 390.05 444.38L492.83 444.38C496.14 444.38 498.83 441.69 498.83 438.38 498.83 435.07 496.14 432.38 492.83 432.38L390.05 432.38C386.74 432.38 384.05 435.07 384.05 438.38ZM390.05 529.81C386.74 529.81 384.05 532.5 384.05 535.81 384.05 539.12 386.74 541.81 390.05 541.81L492.83 541.81C496.14 541.81 498.83 539.12 498.83 535.81 498.83 532.5 496.14 529.81 492.83 529.81ZM534.16 312.79 534.16 379.17C534.16 382.48 531.47 385.17 528.16 385.17L447.44 385.17 447.44 399.19 528.16 399.19C531.47 399.19 534.16 401.88 534.16 405.19L534.16 471.57C534.16 474.88 531.47 477.57 528.16 477.57L447.44 477.57 447.44 496.63 528.16 496.63C531.47 496.63 534.16 499.32 534.16 502.63L534.16 569.01C534.16 572.32 531.47 575.01 528.16 575.01L354.72 575.01C351.41 575.01 348.72 572.32 348.72 569.01L348.72 541.82 241.75 541.82C240.7 542.97 239.64 544.1 238.54 545.19 234.8 548.93 230.73 552.41 226.46 555.53 224.32 557.09 221.4 557.07 219.29 555.46L210.09 548.46C203.46 552.31 196.38 555.24 188.95 557.21L187.4 568.66C187.04 571.29 185 573.37 182.38 573.78 177.12 574.6 171.83 575.02 166.53 575.02 161.23 575.02 155.94 574.61 150.67 573.78 148.05 573.37 146.01 571.29 145.65 568.66L144.1 557.21C136.67 555.24 129.59 552.31 122.96 548.46L113.77 555.46C111.66 557.07 108.74 557.1 106.6 555.53 102.34 552.42 98.27 548.94 94.52 545.19 90.77 541.44 87.3 537.38 84.18 533.11 82.62 530.97 82.65 528.05 84.25 525.94L91.25 516.74C87.4 510.11 84.47 503.03 82.5 495.6L71.05 494.05C68.42 493.69 66.34 491.65 65.93 489.03 64.28 478.51 64.28 467.85 65.93 457.33 66.34 454.71 68.42 452.67 71.05 452.31L82.5 450.76C83.33 447.63 84.34 444.56 85.51 441.56L70.69 441.56C67.4 441.56 64.73 438.91 64.69 435.63L61.8 175.26C61.78 173.65 62.42 172.09 63.56 170.95L120.3 114.21C121.43 113.09 122.95 112.45 124.54 112.45L259.48 112.45C262.77 112.45 265.45 115.1 265.48 118.4L265.77 150.15 352.32 150.15C363.45 111.42 399.19 83.01 441.45 83.01 492.57 83.01 534.17 124.6 534.17 175.73 534.17 226.86 495.79 265.15 447.45 268.25L447.45 306.8 528.17 306.8C531.48 306.8 534.17 309.49 534.17 312.8ZM360.72 175.72C360.72 220.23 396.93 256.44 441.44 256.44 485.95 256.44 522.16 220.23 522.16 175.72 522.16 131.21 485.95 95 441.44 95 396.93 95 360.72 131.21 360.72 175.72ZM76.66 429.56 91.23 429.56 84.28 420.43C82.67 418.32 82.64 415.4 84.21 413.26 87.32 408.99 90.8 404.93 94.55 401.18 98.29 397.44 102.36 393.96 106.62 390.84 108.76 389.28 111.68 389.31 113.79 390.91L122.99 397.91C129.62 394.06 136.7 391.13 144.13 389.16L145.68 377.71C146.04 375.08 148.08 373 150.7 372.59 161.22 370.94 171.88 370.94 182.4 372.59 185.02 373 187.06 375.08 187.42 377.71L188.97 389.16C196.4 391.13 203.48 394.06 210.11 397.91L219.31 390.91C221.42 389.3 224.34 389.27 226.48 390.84 230.75 393.95 234.81 397.43 238.56 401.18 242.3 404.92 245.78 408.99 248.9 413.26 250.46 415.4 250.43 418.32 248.83 420.43L241.88 429.57 256.33 429.57 253.55 124.46 127.07 124.46 73.87 177.65ZM230.06 536.69C232.32 534.43 234.47 532.04 236.48 529.55L229.77 520.74C228.24 518.73 228.13 515.97 229.51 513.85 234.44 506.23 237.91 497.85 239.81 488.95 240.34 486.48 242.36 484.6 244.87 484.26L255.85 482.77C256.53 476.39 256.53 469.97 255.85 463.59L244.87 462.1C242.36 461.76 240.34 459.88 239.81 457.41 238.39 450.76 236.09 444.4 232.96 438.43 232.95 438.41 232.94 438.38 232.93 438.36 231.88 436.37 230.74 434.42 229.51 432.51 228.13 430.39 228.24 427.63 229.77 425.62L236.48 416.8C234.47 414.31 232.32 411.92 230.06 409.66 227.8 407.4 225.41 405.25 222.92 403.24L214.1 409.95C212.09 411.48 209.33 411.59 207.2 410.21 199.58 405.28 191.21 401.81 182.31 399.91 179.84 399.38 177.96 397.36 177.62 394.85L176.13 383.87C169.75 383.19 163.33 383.19 156.95 383.87L155.46 394.85C155.12 397.36 153.24 399.38 150.77 399.91 141.87 401.82 133.49 405.28 125.87 410.21 123.75 411.58 120.99 411.48 118.98 409.95L110.16 403.24C107.67 405.25 105.28 407.4 103.02 409.66 100.76 411.92 98.61 414.31 96.6 416.8L103.31 425.61C104.84 427.62 104.95 430.38 103.57 432.5 102.34 434.4 101.2 436.35 100.15 438.34 100.14 438.37 100.12 438.39 100.11 438.42 96.98 444.39 94.69 450.74 93.26 457.4 92.73 459.87 90.71 461.75 88.2 462.09L77.22 463.58C76.54 469.96 76.54 476.38 77.22 482.76L88.2 484.25C90.71 484.59 92.73 486.47 93.26 488.94 95.16 497.84 98.63 506.21 103.56 513.84 104.93 515.96 104.83 518.72 103.3 520.73L96.59 529.54C98.6 532.03 100.75 534.42 103.01 536.68 105.27 538.94 107.66 541.09 110.15 543.1L118.96 536.39C120.97 534.86 123.73 534.75 125.85 536.13 133.47 541.06 141.84 544.53 150.75 546.43 153.22 546.96 155.1 548.98 155.44 551.49L156.93 562.47C163.31 563.15 169.74 563.15 176.11 562.47L177.6 551.49C177.94 548.98 179.82 546.96 182.29 546.43 191.19 544.52 199.57 541.06 207.18 536.12 209.3 534.74 212.06 534.85 214.08 536.38L222.9 543.09C225.39 541.08 227.78 538.93 230.04 536.67ZM522.16 508.62 441.45 508.62C441.45 508.62 441.45 508.62 441.45 508.62L360.74 508.62 360.74 563 522.18 563 522.18 508.62ZM522.16 411.19 360.72 411.19 360.72 465.57 522.16 465.57ZM435.44 385.17 354.72 385.17C351.41 385.17 348.72 382.48 348.72 379.17L348.72 312.79C348.72 309.48 351.41 306.79 354.72 306.79L435.44 306.79 435.44 268.24C387.1 265.14 348.72 224.83 348.72 175.72 348.72 171.11 349.06 166.58 349.72 162.14L265.87 162.14 268.36 435.51C268.37 437.11 267.75 438.65 266.62 439.79 265.49 440.93 263.96 441.57 262.36 441.57L247.54 441.57C248.71 444.57 249.72 447.64 250.55 450.77L262 452.32C264.63 452.68 266.71 454.72 267.12 457.34 268.77 467.86 268.77 478.52 267.12 489.04 266.71 491.66 264.63 493.7 262 494.06L250.55 495.61C248.58 503.03 245.65 510.12 241.8 516.75L248.8 525.95C249.67 527.09 250.06 528.46 250.01 529.82L348.72 529.82 348.72 502.63C348.72 499.32 351.41 496.63 354.72 496.63L435.44 496.63 435.44 477.57 354.72 477.57C351.41 477.57 348.72 474.88 348.72 471.57L348.72 405.19C348.72 401.88 351.41 399.19 354.72 399.19L435.44 399.19ZM522.16 318.79 441.45 318.79C441.45 318.79 441.45 318.79 441.45 318.79L360.74 318.79 360.74 373.17 522.18 373.17 522.18 318.79ZM390.05 339.98C386.74 339.98 384.05 342.67 384.05 345.98 384.05 349.29 386.74 351.98 390.05 351.98L492.83 351.98C496.14 351.98 498.83 349.29 498.83 345.98 498.83 342.67 496.14 339.98 492.83 339.98ZM118.63 183.94 160.85 183.94C164.16 183.94 166.85 181.25 166.85 177.94 166.85 174.63 164.16 171.94 160.85 171.94L118.63 171.94C115.32 171.94 112.63 174.63 112.63 177.94 112.63 181.25 115.32 183.94 118.63 183.94ZM118.63 226.84 214.45 226.84C217.76 226.84 220.45 224.15 220.45 220.84 220.45 217.53 217.76 214.84 214.45 214.84L118.63 214.84C115.32 214.84 112.63 217.53 112.63 220.84 112.63 224.15 115.32 226.84 118.63 226.84ZM118.63 269.74 214.45 269.74C217.76 269.74 220.45 267.05 220.45 263.74 220.45 260.43 217.76 257.74 214.45 257.74L118.63 257.74C115.32 257.74 112.63 260.43 112.63 263.74 112.63 267.05 115.32 269.74 118.63 269.74ZM118.63 312.64 214.45 312.64C217.76 312.64 220.45 309.95 220.45 306.64 220.45 303.33 217.76 300.64 214.45 300.64L118.63 300.64C115.32 300.64 112.63 303.33 112.63 306.64 112.63 309.95 115.32 312.64 118.63 312.64ZM118.63 355.54 214.45 355.54C217.76 355.54 220.45 352.85 220.45 349.54 220.45 346.23 217.76 343.54 214.45 343.54L118.63 343.54C115.32 343.54 112.63 346.23 112.63 349.54 112.63 352.85 115.32 355.54 118.63 355.54ZM199.94 439.77C218.36 458.19 218.36 488.16 199.94 506.58 190.73 515.79 178.63 520.39 166.54 520.39 154.45 520.39 142.35 515.79 133.14 506.58 114.72 488.16 114.72 458.19 133.14 439.77 151.56 421.35 181.53 421.35 199.95 439.77ZM191.45 448.26C184.58 441.39 175.56 437.95 166.53 437.95 157.5 437.95 148.48 441.39 141.61 448.26 127.87 462 127.87 484.36 141.61 498.1 155.35 511.84 177.71 511.84 191.45 498.1 205.19 484.36 205.19 462 191.45 448.26Z" fill="#A6A6A6"/></g></svg>